{"glyphs":{"0":{"ha":850,"x_min":63,"x_max":788,"o":"m 572 239 q 580 267 572 239 q 597 351 589 296 q 604 471 604 407 q 597 586 604 535 q 572 686 590 638 q 417 789 533 789 q 292 732 343 789 q 246 428 246 622 q 297 178 246 250 q 433 114 344 114 q 519 148 483 114 q 572 239 554 182 m 788 481 q 678 128 788 272 q 378 -17 568 -17 q 192 44 265 -17 q 91 197 119 104 q 63 414 63 289 q 173 772 63 624 q 472 919 283 919 q 658 857 585 919 q 759 700 731 794 q 788 481 788 606 z "},"1":{"ha":558,"x_min":63,"x_max":496,"o":"m 63 714 q 229 825 140 746 q 310 892 272 864 q 402 919 347 919 q 496 900 457 919 q 463 406 463 636 q 488 8 463 175 q 397 -8 449 -8 q 314 25 346 -8 q 282 115 282 58 q 304 351 282 171 q 328 743 326 532 q 276 688 313 729 q 151 594 196 594 q 84 628 106 594 q 63 714 63 661 z "},"2":{"ha":710,"x_min":61,"x_max":647,"o":"m 646 107 q 646 83 646 107 q 613 26 646 60 q 522 -8 581 -8 q 318 0 464 -8 q 93 8 172 8 q 61 108 61 56 q 104 217 61 160 q 208 326 147 275 q 330 428 269 376 q 433 542 390 479 q 476 660 476 604 q 446 753 476 717 q 363 789 415 789 q 275 760 310 789 q 247 665 247 718 q 256 582 247 611 q 210 575 228 575 q 116 606 154 575 q 78 690 78 638 q 172 856 78 792 q 382 919 267 919 q 572 858 497 919 q 647 688 647 796 q 607 558 647 624 q 510 438 567 493 q 394 331 453 383 q 257 122 257 207 q 629 192 475 125 q 646 107 646 154 z "},"3":{"ha":774,"x_min":63,"x_max":711,"o":"m 278 582 q 232 575 250 575 q 138 606 176 575 q 100 690 100 638 q 194 856 100 792 q 405 919 289 919 q 595 863 521 919 q 669 700 669 807 q 558 497 669 575 q 672 421 632 474 q 711 297 711 368 q 596 70 711 157 q 325 -17 481 -17 q 140 26 218 -17 q 63 156 63 69 q 100 244 63 211 q 194 278 138 278 q 249 271 225 278 q 239 218 239 243 q 276 141 239 168 q 378 114 314 114 q 485 155 443 114 q 526 263 526 196 q 490 365 526 329 q 394 401 454 401 q 340 419 363 401 q 317 462 317 436 q 324 508 317 488 q 374 504 349 504 q 468 549 438 504 q 499 654 499 593 q 468 752 499 715 q 385 789 438 789 q 296 761 332 789 q 269 664 269 714 q 278 582 269 614 z "},"4":{"ha":788,"x_min":35,"x_max":725,"o":"m 625 8 q 534 -8 581 -8 q 459 22 488 -8 q 431 104 431 51 q 440 244 431 118 q 140 256 217 247 q 35 360 35 267 q 426 869 235 665 q 527 919 471 919 q 626 906 583 919 q 596 390 596 697 q 715 422 653 401 q 725 346 725 392 q 692 271 725 300 q 599 242 658 242 q 625 8 606 101 m 189 379 q 328 367 257 367 q 449 371 400 367 q 458 570 458 461 q 454 728 458 679 q 189 379 350 619 z "},"5":{"ha":772,"x_min":63,"x_max":710,"o":"m 239 218 q 276 141 239 168 q 377 114 313 114 q 483 160 442 114 q 525 281 525 206 q 382 439 525 439 q 287 424 356 439 q 173 410 218 410 q 89 426 128 410 q 121 776 121 611 q 244 889 121 889 q 650 931 506 889 q 667 831 667 875 q 634 762 667 786 q 552 738 601 738 q 406 748 503 738 q 288 760 308 758 q 271 540 271 683 q 424 561 371 561 q 631 500 551 561 q 710 322 710 439 q 597 77 710 171 q 324 -17 483 -17 q 140 26 217 -17 q 63 156 63 69 q 100 244 63 211 q 194 278 138 278 q 249 271 225 278 q 239 218 239 243 z "},"6":{"ha":772,"x_min":63,"x_max":710,"o":"m 244 472 q 456 547 336 547 q 642 488 575 547 q 710 322 710 428 q 609 83 710 182 q 363 -17 508 -17 q 140 88 217 -17 q 63 349 63 192 q 106 630 63 506 q 249 837 150 754 q 483 919 347 919 q 632 880 572 919 q 692 764 692 840 q 654 677 692 710 q 572 644 617 644 q 506 651 528 644 q 515 704 515 679 q 433 789 515 789 q 314 749 369 789 q 264 620 283 701 q 244 472 244 539 m 240 354 q 382 114 240 114 q 485 163 446 114 q 525 278 525 211 q 492 385 525 346 q 397 425 460 425 q 240 354 308 425 z "},"7":{"ha":694,"x_min":63,"x_max":667,"o":"m 81 915 q 329 894 179 894 q 456 903 374 894 q 581 913 539 913 q 644 893 622 913 q 667 822 667 874 q 631 699 667 771 q 507 490 594 628 q 381 244 419 353 q 343 10 343 136 q 253 -8 300 -8 q 176 14 206 -8 q 146 85 146 36 q 197 233 146 135 q 314 421 249 331 q 518 778 490 669 q 346 753 463 774 q 178 733 229 733 q 94 763 126 733 q 63 831 63 792 q 81 915 63 871 z "},"8":{"ha":810,"x_min":63,"x_max":747,"o":"m 747 294 q 635 69 747 156 q 384 -17 524 -17 q 153 47 244 -17 q 63 222 63 110 q 106 371 63 303 q 231 481 150 439 q 108 660 108 544 q 217 847 108 775 q 444 919 325 919 q 635 866 564 919 q 706 710 706 813 q 592 508 706 608 q 705 426 663 481 q 747 294 747 371 m 331 438 q 239 253 239 364 q 285 150 239 188 q 401 113 331 113 q 528 153 472 113 q 585 253 585 193 q 537 352 585 313 q 331 438 489 392 m 282 672 q 492 547 282 594 q 563 686 563 600 q 526 763 563 736 q 424 789 489 789 q 306 753 360 789 q 282 672 282 717 z "},"9":{"ha":772,"x_min":63,"x_max":710,"o":"m 529 568 q 493 727 529 665 q 376 789 457 789 q 278 757 325 789 q 247 643 247 706 q 278 539 247 581 q 363 497 308 497 q 529 568 454 497 m 528 450 q 315 375 433 375 q 130 435 197 375 q 63 600 63 494 q 163 826 63 733 q 408 919 264 919 q 631 817 551 919 q 710 562 710 715 q 665 282 710 408 q 522 69 619 156 q 293 -17 424 -17 q 142 22 206 -17 q 79 133 79 60 q 117 218 79 186 q 199 250 156 250 q 265 243 243 250 q 256 189 256 215 q 338 114 256 114 q 429 145 390 114 q 489 228 468 176 q 528 450 528 329 z "}," ":{"ha":392,"x_min":0,"x_max":0,"o":""},"!":{"ha":442,"x_min":104,"x_max":338,"o":"m 164 167 q 254 188 208 188 q 338 101 338 188 q 306 24 338 56 q 231 -8 275 -8 q 165 17 188 -8 q 142 86 142 43 q 164 167 142 129 m 104 1011 q 212 1042 154 1042 q 301 1016 269 1042 q 332 944 332 990 q 313 733 332 899 q 294 481 294 568 q 304 333 294 393 q 247 317 281 317 q 194 333 214 317 q 174 378 174 349 q 172 634 174 544 q 153 839 169 724 q 104 1011 136 954 z "},"\"":{"ha":631,"x_min":69,"x_max":561,"o":"m 69 790 q 121 972 121 882 q 115 1032 121 1004 q 189 1042 160 1042 q 279 964 279 1042 q 224 835 279 906 q 115 765 169 765 q 69 790 86 765 m 351 790 q 403 972 403 882 q 397 1032 403 1004 q 471 1042 440 1042 q 561 964 561 1042 q 506 835 561 906 q 397 765 451 765 q 351 790 368 765 z "},"#":{"ha":818,"x_min":21,"x_max":797,"o":"m 379 636 q 517 628 471 628 q 546 908 544 783 q 613 919 579 919 q 668 902 646 919 q 690 850 690 885 q 639 629 690 815 q 782 647 718 633 q 797 597 797 624 q 778 552 797 569 q 728 535 758 535 q 615 538 654 535 l 599 460 q 576 350 590 422 q 724 368 656 353 q 739 317 739 344 q 719 273 739 290 q 669 256 700 256 q 563 258 599 256 q 532 3 544 139 q 467 -8 501 -8 q 385 60 385 -8 q 433 265 385 82 q 301 272 344 271 q 268 -6 279 132 q 203 -17 238 -17 q 121 51 121 -17 q 174 272 121 76 q 36 256 89 267 q 21 306 21 279 q 40 351 21 333 q 93 368 60 368 q 199 365 126 368 q 240 551 226 472 q 94 535 164 550 q 79 585 79 558 q 99 630 79 613 q 151 647 118 647 q 257 644 185 647 q 282 900 281 789 q 349 911 315 911 q 404 894 382 911 q 426 840 426 876 q 379 636 426 804 m 315 357 q 456 349 415 349 q 493 501 476 421 l 501 544 q 357 551 408 550 q 315 357 338 479 z "},"$":{"ha":808,"x_min":63,"x_max":746,"o":"m 447 -1 q 460 -169 451 -100 q 403 -181 426 -181 q 340 -126 340 -181 q 344 -7 340 -69 q 144 53 226 -3 q 63 211 63 110 q 99 301 63 267 q 185 336 135 336 q 257 325 236 336 q 246 257 246 274 q 290 149 246 188 q 407 111 335 111 q 525 144 479 111 q 571 232 571 176 q 534 323 571 288 q 442 376 497 358 q 324 417 388 394 q 205 464 260 440 q 113 534 150 488 q 76 644 76 581 q 158 816 76 744 q 358 910 239 888 l 349 1031 q 402 1042 374 1042 q 449 1020 431 1042 q 468 966 468 999 q 467 919 468 933 q 640 878 567 915 q 714 764 714 840 q 673 666 714 706 q 572 626 632 626 q 533 631 554 626 q 540 682 540 654 q 507 769 540 743 q 410 794 474 794 q 301 774 347 794 q 263 690 263 738 q 313 613 263 643 q 433 563 363 583 q 575 515 504 542 q 696 432 646 488 q 746 294 746 376 q 661 99 746 179 q 447 -1 576 19 z "},"&":{"ha":1031,"x_min":56,"x_max":1025,"o":"m 739 636 q 817 647 772 647 q 897 615 863 647 q 932 524 932 582 q 771 197 932 361 q 1025 118 915 118 q 907 -6 1025 -6 q 638 90 797 -6 q 313 -17 472 -17 q 122 47 189 -17 q 56 231 56 110 q 206 511 56 386 q 139 714 139 626 q 238 919 139 833 q 464 1006 338 1006 q 601 963 550 1006 q 653 842 653 921 q 628 741 653 778 q 591 686 604 704 q 547 642 578 668 q 501 603 515 615 q 447 563 486 592 q 397 526 408 535 q 657 271 483 397 q 754 493 754 385 q 739 636 754 567 m 274 411 q 228 276 228 347 q 379 122 228 122 q 529 165 454 122 q 274 411 369 288 m 497 750 q 510 806 510 774 q 489 861 510 839 q 424 883 468 883 q 342 861 381 883 q 313 756 313 821 q 347 614 313 690 q 497 750 472 699 z "},"'":{"ha":353,"x_min":69,"x_max":283,"o":"m 69 792 q 124 1042 119 901 q 244 1027 206 1042 q 283 965 283 1013 q 224 842 283 918 q 129 767 164 767 q 69 792 94 767 z "},"(":{"ha":504,"x_min":76,"x_max":428,"o":"m 301 1136 q 428 1044 428 1136 q 407 983 428 1018 q 357 903 386 947 q 298 803 328 860 q 247 656 268 747 q 226 458 226 565 q 418 -97 226 138 q 347 -142 388 -142 q 224 -53 288 -142 q 119 184 161 36 q 76 486 76 332 q 301 1136 76 863 z "},")":{"ha":504,"x_min":76,"x_max":428,"o":"m 203 -142 q 76 -50 76 -142 q 97 12 76 -24 q 147 91 118 47 q 206 191 176 135 q 257 338 236 247 q 278 536 278 429 q 86 1092 278 857 q 157 1136 117 1136 q 280 1047 217 1136 q 385 810 343 958 q 428 508 428 663 q 203 -142 428 132 z "},"*":{"ha":672,"x_min":58,"x_max":607,"o":"m 58 726 q 89 838 71 803 q 144 874 107 874 q 300 769 199 874 q 264 979 300 871 q 339 986 319 986 q 433 918 433 986 q 379 761 433 856 q 567 860 501 810 q 607 739 607 776 q 501 672 607 672 q 396 685 451 672 q 547 536 471 588 q 425 456 464 456 q 375 483 392 456 q 341 572 349 532 q 326 646 333 611 q 233 454 251 525 q 118 560 118 514 q 163 633 118 594 q 269 697 208 671 q 58 726 156 726 z "},"+":{"ha":724,"x_min":76,"x_max":647,"o":"m 297 289 q 93 268 165 288 q 76 335 76 297 q 108 398 76 374 q 189 422 139 422 q 307 410 204 422 q 286 617 307 546 q 353 633 315 633 q 416 602 392 633 q 440 521 440 571 q 426 401 440 517 q 631 422 558 403 q 647 355 647 393 q 616 292 647 317 q 535 268 585 268 q 417 281 519 268 q 438 74 417 144 q 370 57 408 57 q 308 88 332 57 q 283 169 283 119 q 297 289 283 174 z "},",":{"ha":374,"x_min":21,"x_max":304,"o":"m 21 -192 q 128 44 128 -93 q 97 172 128 113 q 201 210 150 210 q 304 79 304 210 q 232 -115 304 -12 q 79 -217 160 -217 q 21 -192 47 -217 z "},"-":{"ha":674,"x_min":76,"x_max":597,"o":"m 581 422 q 597 355 597 393 q 566 292 597 317 q 498 268 535 268 q 366 279 461 268 q 202 290 271 290 q 93 268 133 290 q 76 335 76 297 q 108 398 76 374 q 176 422 139 422 q 308 411 213 422 q 472 400 403 400 q 581 422 540 400 z "},".":{"ha":357,"x_min":69,"x_max":288,"o":"m 94 186 q 185 210 139 210 q 288 114 288 210 q 253 27 288 63 q 169 -8 218 -8 q 95 19 121 -8 q 69 95 69 47 q 94 186 69 143 z "},"/":{"ha":813,"x_min":50,"x_max":757,"o":"m 50 47 q 236 314 138 131 q 320 472 303 439 q 423 690 338 504 q 524 906 508 876 q 646 994 572 994 q 757 942 719 994 q 511 526 664 832 q 442 386 496 496 q 286 82 310 122 q 160 -8 233 -8 q 50 47 88 -8 z "},":":{"ha":357,"x_min":69,"x_max":288,"o":"m 94 186 q 185 210 139 210 q 288 114 288 210 q 253 27 288 63 q 169 -8 218 -8 q 95 19 121 -8 q 69 95 69 47 q 94 186 69 143 m 94 611 q 185 635 139 635 q 288 539 288 635 q 253 452 288 488 q 169 417 218 417 q 95 444 121 417 q 69 520 69 472 q 94 611 69 568 z "},";":{"ha":388,"x_min":21,"x_max":318,"o":"m 21 -192 q 128 44 128 -93 q 97 172 128 113 q 201 210 150 210 q 304 79 304 210 q 232 -115 304 -12 q 79 -217 160 -217 q 21 -192 47 -217 m 125 611 q 215 635 169 635 q 318 539 318 635 q 283 452 318 488 q 200 417 249 417 q 126 444 151 417 q 100 520 100 472 q 125 611 100 568 z "},"<":{"ha":815,"x_min":63,"x_max":753,"o":"m 747 147 q 669 92 733 92 q 398 192 578 92 q 63 413 218 292 q 188 474 75 419 q 342 549 301 528 q 467 614 383 569 q 699 753 618 692 q 753 690 753 738 q 649 572 753 642 q 353 399 544 501 q 747 147 543 233 z "},"=":{"ha":729,"x_min":76,"x_max":653,"o":"m 636 307 q 653 240 653 279 q 622 177 653 201 q 553 153 592 153 q 438 163 515 153 q 265 174 361 174 q 93 153 169 174 q 76 219 76 181 q 107 283 76 258 q 176 307 138 307 q 296 297 214 307 q 472 286 378 286 q 636 307 565 286 m 636 538 q 653 471 653 510 q 622 408 653 432 q 553 383 592 383 q 438 394 515 383 q 265 404 361 404 q 93 383 169 404 q 76 450 76 411 q 107 513 76 489 q 176 538 138 538 q 296 527 214 538 q 472 517 378 517 q 636 538 565 517 z "},">":{"ha":815,"x_min":63,"x_max":753,"o":"m 68 697 q 146 753 82 753 q 417 653 238 753 q 753 432 597 553 q 627 371 740 425 q 473 296 514 317 q 347 231 432 275 q 117 92 197 153 q 63 155 63 107 q 167 273 63 203 q 463 446 271 343 q 68 697 272 611 z "},"?":{"ha":715,"x_min":76,"x_max":639,"o":"m 369 642 q 386 659 369 642 q 429 719 404 676 q 454 810 454 763 q 429 885 454 857 q 355 913 404 913 q 276 868 306 913 q 246 770 246 824 q 254 676 246 717 q 208 669 229 669 q 115 706 153 669 q 76 799 76 743 q 174 974 76 907 q 386 1042 271 1042 q 570 988 501 1042 q 639 836 639 935 q 601 715 639 776 q 517 612 563 654 q 434 512 472 569 q 396 400 396 454 q 404 346 396 375 q 324 319 369 319 q 247 347 279 319 q 214 416 214 374 q 239 499 214 458 q 299 573 264 539 q 369 642 333 607 m 236 165 q 317 188 278 188 q 410 101 410 188 q 378 24 410 56 q 303 -8 347 -8 q 237 16 260 -8 q 214 84 214 40 q 236 165 214 128 z "},"@":{"ha":1103,"x_min":49,"x_max":1054,"o":"m 658 94 q 674 53 674 76 q 496 -17 674 -17 q 169 115 290 -17 q 49 468 49 247 q 200 843 49 689 q 572 997 351 997 q 924 863 793 997 q 1054 514 1054 729 q 992 281 1054 376 q 810 186 929 186 q 680 246 722 186 q 638 406 638 306 q 500 203 563 239 q 436 186 471 186 q 301 246 346 186 q 256 404 256 306 q 330 682 256 575 q 546 789 404 789 q 808 750 688 789 q 781 468 781 618 q 800 365 781 408 q 865 322 819 322 q 946 488 946 322 q 840 797 946 678 q 551 915 735 915 q 282 824 407 915 q 191 673 225 764 q 157 488 157 582 q 253 183 157 300 q 524 65 349 65 q 658 94 606 65 m 640 650 q 536 665 585 665 q 451 639 488 665 q 417 449 417 561 q 435 360 417 399 q 492 322 453 322 q 584 450 535 322 q 640 650 633 578 z "},"A":{"ha":854,"x_min":14,"x_max":847,"o":"m 311 975 q 417 994 369 994 q 529 944 489 994 q 592 800 569 893 q 620 678 599 772 q 656 525 642 583 q 734 243 699 343 q 847 83 769 143 q 792 17 831 42 q 710 -8 754 -8 q 561 144 608 -8 q 521 283 539 215 q 401 267 472 267 q 225 282 329 267 q 182 29 182 114 q 183 3 182 11 q 122 0 165 0 q 47 27 79 0 q 14 104 14 54 q 147 511 14 174 q 311 975 281 849 m 257 399 q 370 392 313 392 q 493 404 428 392 q 408 840 481 461 q 257 399 322 617 z "},"B":{"ha":883,"x_min":83,"x_max":828,"o":"m 92 942 q 440 994 292 994 q 758 774 758 994 q 632 568 758 639 q 772 488 717 547 q 828 340 828 429 q 704 83 828 174 q 399 -8 581 -8 q 83 64 217 -8 q 126 469 126 214 q 92 942 126 724 m 301 142 q 424 122 363 122 q 582 170 519 122 q 644 306 644 218 q 464 472 644 472 q 289 436 378 472 q 301 142 289 296 m 288 558 q 345 568 307 563 q 404 578 383 574 q 456 590 425 582 q 505 610 488 599 q 540 640 522 622 q 575 742 575 675 q 421 871 575 871 q 299 854 371 871 q 288 558 288 569 z "},"C":{"ha":850,"x_min":35,"x_max":822,"o":"m 506 1003 q 717 932 626 1003 q 807 749 807 861 q 774 650 807 689 q 692 611 740 611 q 614 624 643 611 q 618 671 618 646 q 575 813 617 758 q 453 868 533 868 q 306 817 374 868 q 243 664 265 758 q 221 478 221 569 q 280 222 221 325 q 464 118 339 118 q 619 206 579 118 q 657 408 657 282 q 775 383 728 408 q 822 299 822 357 q 703 73 822 163 q 433 -17 583 -17 q 136 113 238 -17 q 35 465 35 243 q 162 845 35 688 q 506 1003 289 1003 z "},"D":{"ha":911,"x_min":83,"x_max":869,"o":"m 83 63 q 126 492 126 269 q 92 942 126 714 q 426 994 281 994 q 756 881 643 994 q 869 538 869 768 q 741 149 869 307 q 385 -8 613 -8 q 83 63 229 -8 m 299 854 q 286 526 286 685 q 301 142 286 367 q 429 122 358 122 q 552 155 500 122 q 632 244 604 188 q 686 510 686 353 q 628 760 686 661 q 429 871 564 871 q 299 854 356 871 z "},"E":{"ha":768,"x_min":83,"x_max":726,"o":"m 710 192 q 726 107 726 154 q 694 26 726 60 q 614 -8 661 -8 q 153 8 467 -8 q 108 24 128 10 q 89 61 89 39 q 101 310 89 135 q 113 637 113 485 q 83 986 113 789 q 360 978 186 978 q 692 1003 533 978 q 708 930 708 972 q 676 855 708 888 q 595 822 643 822 q 442 836 547 822 q 288 850 338 850 q 275 586 276 710 q 463 578 363 578 q 636 607 564 578 q 653 534 653 576 q 620 458 653 492 q 542 424 588 424 q 408 441 497 424 q 274 458 319 458 q 283 136 274 239 q 388 131 350 131 q 710 192 571 131 z "},"F":{"ha":729,"x_min":83,"x_max":708,"o":"m 274 444 q 303 17 274 176 q 208 0 258 0 q 122 32 158 0 q 85 120 85 64 q 99 333 85 176 q 113 576 113 490 q 83 986 113 789 q 360 978 186 978 q 692 1003 533 978 q 708 930 708 972 q 676 855 708 888 q 595 822 643 822 q 442 836 547 822 q 288 850 338 850 q 274 572 276 699 q 452 564 354 564 q 622 593 550 564 q 639 520 639 563 q 606 444 639 478 q 529 410 574 410 q 401 427 485 410 q 274 444 318 444 z "},"G":{"ha":882,"x_min":33,"x_max":813,"o":"m 581 461 l 729 472 q 813 388 813 472 q 800 236 813 339 q 788 69 788 133 q 633 28 753 64 q 432 -8 513 -8 q 134 114 235 -8 q 33 447 33 236 q 88 722 33 597 q 251 925 143 847 q 491 1003 360 1003 q 710 942 622 1003 q 799 776 799 881 q 765 678 799 718 q 678 639 731 639 q 604 651 625 639 q 608 701 608 676 q 567 822 608 775 q 449 868 525 868 q 304 817 372 868 q 242 661 264 760 q 219 469 219 563 q 278 223 219 319 q 463 126 336 126 q 636 181 556 126 q 642 336 642 235 q 556 319 586 319 q 479 400 479 319 q 493 474 479 435 q 581 461 531 461 z "},"H":{"ha":956,"x_min":83,"x_max":872,"o":"m 303 17 q 208 0 258 0 q 122 32 158 0 q 85 119 85 64 q 99 333 85 175 q 113 585 113 490 q 83 969 113 828 q 178 986 128 986 q 265 954 228 986 q 301 876 301 922 q 298 786 301 829 q 289 688 294 743 q 281 590 283 632 q 472 585 336 585 q 682 596 608 585 q 653 978 682 817 q 747 994 697 994 q 834 963 797 994 q 871 874 871 931 q 857 675 871 818 q 843 446 843 532 q 872 8 843 174 q 778 -8 828 -8 q 691 24 728 -8 q 654 108 654 56 q 665 281 654 161 q 679 444 676 400 q 274 454 543 454 l 274 418 q 303 17 274 172 z "},"I":{"ha":386,"x_min":83,"x_max":303,"o":"m 303 17 q 208 0 258 0 q 122 32 158 0 q 85 119 85 64 q 99 333 85 175 q 113 585 113 490 q 83 969 113 828 q 178 986 128 986 q 265 954 228 986 q 301 867 301 922 q 288 653 301 811 q 274 401 274 496 q 303 17 274 158 z "},"J":{"ha":618,"x_min":0,"x_max":542,"o":"m 128 1003 q 446 986 236 986 q 533 899 528 986 q 542 608 542 738 q 531 353 542 479 q 426 92 518 199 q 192 -15 333 -15 q 57 27 114 -15 q 0 131 0 69 q 34 233 0 193 q 119 272 68 272 q 165 263 144 272 q 156 206 156 238 q 177 148 156 175 q 235 121 199 121 q 298 148 272 121 q 336 225 324 175 q 367 512 367 338 q 349 849 367 686 q 277 838 326 849 q 208 828 228 828 q 111 926 111 828 q 128 1003 111 961 z "},"K":{"ha":889,"x_min":83,"x_max":872,"o":"m 499 542 q 676 268 571 394 q 872 114 781 142 q 842 24 872 56 q 754 -8 811 -8 q 581 97 679 -8 q 410 332 483 201 q 307 561 336 463 q 542 747 444 621 q 639 994 639 872 q 742 974 699 994 q 786 907 786 953 q 700 732 786 835 q 499 542 614 629 m 303 17 q 208 0 258 0 q 122 32 158 0 q 85 119 85 64 q 99 333 85 175 q 113 585 113 490 q 83 969 113 828 q 178 986 128 986 q 265 954 228 986 q 301 867 301 922 q 288 653 301 811 q 274 401 274 496 q 303 17 274 158 z "},"L":{"ha":714,"x_min":83,"x_max":699,"o":"m 83 969 q 179 986 128 986 q 303 874 303 986 q 289 673 303 813 q 275 383 275 533 q 285 135 275 233 q 360 131 322 131 q 682 192 543 131 q 699 107 699 154 q 666 26 699 60 q 586 -8 633 -8 q 154 8 488 -8 q 108 24 128 10 q 89 61 89 39 q 101 310 89 135 q 113 633 113 485 q 83 969 113 781 z "},"M":{"ha":1197,"x_min":83,"x_max":1136,"o":"m 1082 908 l 1075 679 q 1086 341 1075 490 q 1136 17 1097 192 q 1039 -8 1106 -8 q 910 104 910 -8 q 919 389 910 197 q 928 689 928 581 q 770 422 853 581 q 688 226 688 263 q 694 171 688 190 q 613 151 664 151 q 528 179 563 151 q 472 256 494 207 q 391 447 449 304 q 286 692 333 589 q 250 296 250 468 q 261 17 250 124 q 172 0 217 0 q 83 89 83 0 q 115 360 83 157 q 146 704 146 564 q 131 967 146 844 q 247 986 206 986 q 350 932 324 986 q 473 653 392 844 q 606 360 554 463 q 670 485 619 389 q 755 651 721 582 q 824 815 789 719 q 869 981 860 910 q 967 994 919 994 q 1049 974 1015 994 q 1082 908 1082 953 z "},"N":{"ha":925,"x_min":83,"x_max":864,"o":"m 658 972 q 752 994 703 994 q 833 964 801 994 q 864 890 864 933 q 851 701 864 847 q 839 468 839 554 q 864 8 839 192 q 765 -8 819 -8 q 679 10 710 -8 q 264 660 590 61 q 258 406 258 606 q 289 17 258 207 q 196 0 246 0 q 115 32 146 0 q 83 108 83 64 q 97 294 83 153 q 110 508 110 436 q 83 967 110 785 q 197 986 122 986 q 303 926 272 986 q 696 218 508 508 q 692 500 692 485 q 658 972 692 760 z "},"O":{"ha":961,"x_min":42,"x_max":919,"o":"m 736 506 q 669 773 736 671 q 458 875 601 875 q 306 819 372 875 q 247 663 268 761 q 225 475 225 564 q 292 213 225 311 q 503 114 358 114 q 638 178 582 114 q 736 506 736 293 m 456 -17 q 354 -17 456 -17 q 147 117 253 -17 q 42 469 42 251 q 172 844 42 686 q 505 1003 303 1003 q 813 867 707 1003 q 919 513 919 731 q 789 139 919 294 q 456 -17 658 -17 z "},"P":{"ha":821,"x_min":85,"x_max":793,"o":"m 85 942 q 407 994 240 994 q 683 924 574 994 q 793 707 793 853 q 690 462 793 561 q 443 363 588 363 q 338 443 338 363 q 347 496 338 468 q 415 486 385 486 q 560 539 511 486 q 610 685 610 592 q 557 825 610 779 q 410 871 504 871 q 292 854 361 871 q 281 551 281 683 q 310 17 281 182 q 215 0 265 0 q 128 32 165 0 q 92 117 92 64 q 106 301 92 169 q 119 511 119 432 q 85 942 119 753 z "},"Q":{"ha":961,"x_min":42,"x_max":956,"o":"m 813 867 q 866 800 813 867 q 919 524 919 732 q 813 176 919 315 q 547 1 707 38 q 608 -33 561 -7 q 667 -67 654 -60 q 718 -94 681 -75 q 775 -118 756 -112 q 828 -133 794 -124 q 956 -150 878 -150 q 925 -256 956 -214 q 838 -297 894 -297 q 726 -272 781 -297 q 638 -217 672 -247 q 544 -132 603 -187 q 449 -49 485 -76 q 314 14 414 -21 q 120 165 199 51 q 42 465 42 279 q 172 846 42 689 q 505 1003 303 1003 q 813 867 707 1003 m 503 124 q 638 186 582 124 q 736 510 736 299 q 669 775 736 675 q 458 875 601 875 q 306 821 374 875 q 247 665 268 761 q 225 479 225 569 q 292 219 225 315 q 503 124 358 124 z "},"R":{"ha":886,"x_min":85,"x_max":872,"o":"m 524 472 q 682 242 586 340 q 872 114 778 143 q 842 24 872 56 q 754 -8 811 -8 q 586 87 681 -8 q 422 312 492 182 q 339 540 351 442 q 503 594 439 540 q 568 746 568 647 q 413 871 568 871 q 290 854 363 871 q 281 551 281 667 q 310 17 281 182 q 215 0 265 0 q 128 32 165 0 q 92 117 92 64 q 106 301 92 169 q 119 511 119 432 q 85 943 119 754 q 442 994 272 994 q 751 774 751 994 q 685 591 751 676 q 524 472 619 506 z "},"S":{"ha":781,"x_min":56,"x_max":739,"o":"m 522 686 q 528 743 528 714 q 396 878 528 878 q 294 853 336 878 q 256 743 256 807 q 292 672 256 701 q 381 625 328 642 q 497 583 435 608 q 613 530 560 558 q 703 445 667 501 q 739 313 739 389 q 627 75 739 167 q 358 -17 515 -17 q 144 47 232 -17 q 56 224 56 110 q 91 322 56 282 q 176 361 126 361 q 249 349 225 361 q 238 274 238 307 q 280 155 238 199 q 397 111 322 111 q 518 150 472 111 q 564 253 564 189 q 513 360 564 318 q 390 426 463 401 q 246 479 318 451 q 123 562 174 507 q 72 700 72 617 q 185 917 72 831 q 442 1003 299 1003 q 624 960 547 1003 q 701 832 701 918 q 661 726 701 769 q 560 682 621 682 q 522 686 543 682 z "},"T":{"ha":767,"x_min":7,"x_max":761,"o":"m 119 990 l 413 986 q 746 1003 640 986 q 761 936 761 974 q 728 869 761 899 q 647 839 694 839 l 488 857 q 481 771 488 847 q 461 394 461 583 q 490 17 461 206 q 394 0 444 0 q 308 28 344 0 q 272 115 272 57 q 286 318 272 172 q 300 602 300 464 q 286 860 300 740 q 24 813 118 851 q 7 884 7 844 q 39 957 7 924 q 119 990 71 990 z "},"U":{"ha":922,"x_min":81,"x_max":846,"o":"m 299 874 q 278 599 299 769 q 258 335 258 428 q 308 180 258 242 q 457 118 358 118 q 554 138 497 118 q 644 188 611 157 q 663 584 663 342 q 628 978 663 826 q 722 994 672 994 q 809 963 772 994 q 846 879 846 931 q 834 703 846 828 q 822 423 822 578 q 836 150 822 268 q 425 -17 633 -17 q 178 65 267 -17 q 90 300 90 146 q 99 476 90 349 q 108 661 108 603 q 81 969 108 871 q 175 986 125 986 q 262 954 225 986 q 299 874 299 922 z "},"V":{"ha":861,"x_min":7,"x_max":854,"o":"m 550 11 q 444 -8 492 -8 q 334 44 374 -8 q 269 192 294 96 q 231 344 264 213 q 125 719 165 603 q 7 894 85 835 q 62 961 24 936 q 151 986 100 986 q 236 947 203 986 q 290 850 269 907 q 325 740 310 793 q 358 610 340 688 q 385 484 375 532 q 419 320 396 436 q 453 151 442 204 q 686 964 686 760 q 685 990 686 982 q 728 994 706 994 q 819 967 783 994 q 854 890 854 940 q 717 480 854 821 q 550 11 581 139 z "},"W":{"ha":1235,"x_min":7,"x_max":1228,"o":"m 967 0 q 874 -17 924 -17 q 796 1 824 -17 q 750 56 768 19 q 690 235 724 108 q 638 514 657 363 q 504 8 521 143 q 394 -8 443 -8 q 278 49 315 -8 q 224 200 240 107 q 203 317 224 203 q 172 475 182 431 q 106 747 140 638 q 7 897 72 857 q 58 963 24 939 q 136 986 93 986 q 274 842 232 986 q 343 498 303 740 q 403 151 383 256 q 560 732 560 590 q 553 772 560 761 q 635 806 582 806 q 719 776 689 806 q 767 683 749 747 q 817 431 785 618 q 868 151 850 243 q 956 433 924 326 q 1024 703 989 540 q 1060 965 1060 865 q 1058 992 1060 983 q 1119 994 1076 994 q 1195 967 1163 994 q 1228 881 1228 940 q 1184 681 1228 821 q 1072 340 1140 540 q 967 0 1003 139 z "},"X":{"ha":821,"x_min":7,"x_max":814,"o":"m 814 89 q 814 69 814 89 q 783 21 814 50 q 706 -8 751 -8 q 619 19 661 -8 q 548 82 578 47 q 483 181 518 117 q 378 399 431 276 q 182 0 199 183 q 7 115 7 0 q 44 203 7 154 q 174 353 81 253 q 324 518 268 453 q 8 872 163 872 q 39 956 8 925 q 122 986 69 986 q 298 890 215 986 q 443 642 381 794 q 604 994 590 804 q 779 888 779 994 q 742 801 779 849 q 624 671 704 753 q 493 529 543 589 q 551 400 536 428 q 588 326 565 372 q 628 258 611 279 q 667 208 644 236 q 711 169 689 181 q 756 157 733 157 q 797 165 778 157 q 814 89 814 128 z "},"Y":{"ha":807,"x_min":7,"x_max":799,"o":"m 7 914 q 129 986 40 986 q 442 511 294 986 q 590 774 528 640 q 651 994 651 908 q 799 917 799 994 q 732 756 799 863 q 588 535 665 649 q 497 369 511 422 q 493 236 493 315 q 513 17 493 157 q 418 0 468 0 q 331 32 368 0 q 294 113 294 64 q 311 365 294 163 q 7 914 204 782 z "},"Z":{"ha":771,"x_min":35,"x_max":722,"o":"m 353 975 l 624 986 q 693 965 664 986 q 722 903 722 944 q 660 768 722 863 q 520 576 599 674 q 358 354 442 479 q 242 136 275 229 q 383 131 333 131 q 706 192 567 131 q 722 107 722 154 q 690 26 722 60 q 610 -8 657 -8 l 60 0 q 35 95 35 38 q 137 301 35 153 q 367 622 239 450 q 531 863 496 794 q 413 842 493 857 q 182 813 247 813 q 50 901 50 813 q 67 1003 50 961 q 353 975 196 975 z "},"[":{"ha":497,"x_min":76,"x_max":421,"o":"m 393 7 q 407 -58 407 -21 q 383 -119 407 -94 q 325 -143 360 -143 q 131 -136 207 -143 q 76 -83 76 -132 q 88 185 76 -33 q 100 642 100 403 q 85 1110 100 881 q 149 1121 115 1121 l 213 1121 q 407 1135 338 1121 q 421 1083 421 1113 q 395 1024 421 1053 q 322 996 369 996 q 240 1000 274 996 q 231 790 239 951 q 222 402 222 628 q 232 -25 222 176 q 393 7 317 -25 z "},"\\":{"ha":813,"x_min":50,"x_max":757,"o":"m 50 939 q 160 994 88 994 q 286 904 233 994 q 403 677 310 864 q 504 474 496 490 q 541 401 513 457 q 579 326 569 344 q 617 256 589 307 q 663 178 644 206 q 757 44 717 92 q 646 -8 719 -8 q 524 81 572 -8 q 423 296 508 110 q 321 513 338 482 q 276 598 304 544 q 236 672 247 651 q 196 742 225 693 q 147 819 167 792 q 50 939 94 896 z "},"]":{"ha":497,"x_min":76,"x_max":421,"o":"m 104 985 q 90 1049 90 1013 q 114 1110 90 1086 q 172 1135 138 1135 q 367 1128 290 1135 q 421 1074 421 1124 q 409 807 421 1025 q 397 350 397 589 q 413 -118 397 111 q 349 -129 382 -129 l 285 -129 q 90 -143 160 -129 q 76 -91 76 -121 q 102 -33 76 -61 q 176 -4 128 -4 q 257 -8 224 -4 q 267 202 258 40 q 275 590 275 364 q 265 1017 275 815 q 104 985 181 1017 z "},"^":{"ha":869,"x_min":63,"x_max":807,"o":"m 181 167 q 94 203 126 175 q 63 272 63 232 q 195 483 63 347 q 486 728 328 619 q 807 271 590 461 q 682 203 774 203 q 567 281 629 203 q 411 513 504 360 q 181 167 242 371 z "},"_":{"ha":746,"x_min":49,"x_max":697,"o":"m 118 -85 l 514 -104 q 682 -85 622 -104 q 697 -136 697 -108 q 628 -197 697 -197 l 235 -179 q 64 -197 126 -179 q 49 -146 49 -174 q 118 -85 49 -85 z "},"`":{"ha":464,"x_min":69,"x_max":394,"o":"m 394 847 q 338 794 383 794 q 173 851 276 794 q 69 963 69 907 q 108 1022 69 1001 q 201 1042 146 1042 q 394 847 269 917 z "},"a":{"ha":757,"x_min":28,"x_max":707,"o":"m 707 654 q 669 334 669 494 q 706 17 669 174 q 603 0 656 0 q 529 31 550 0 q 508 122 508 63 q 526 283 508 181 q 336 17 428 72 q 250 -8 294 -8 q 86 70 144 -8 q 28 265 28 149 q 126 577 28 443 q 383 711 225 711 q 707 654 540 711 m 525 571 q 400 593 451 593 q 244 547 296 593 q 197 310 197 431 q 217 181 197 246 q 279 115 238 115 q 404 258 328 115 q 525 571 481 401 z "},"b":{"ha":783,"x_min":72,"x_max":742,"o":"m 72 49 q 104 429 104 325 q 81 1025 104 721 q 169 1042 122 1042 q 250 1010 217 1042 q 283 929 283 978 q 267 663 283 846 q 246 419 250 481 q 472 686 360 633 q 579 711 522 711 q 699 629 657 711 q 742 429 742 547 q 639 116 742 240 q 373 -8 536 -8 q 72 49 210 -8 m 239 136 q 371 115 294 115 q 503 144 447 115 q 571 399 571 261 q 556 526 571 464 q 507 588 540 588 q 372 446 456 588 q 239 136 289 304 z "},"c":{"ha":689,"x_min":42,"x_max":639,"o":"m 349 -17 q 121 63 200 -17 q 42 290 42 142 q 143 595 42 471 q 413 719 244 719 q 568 681 508 719 q 628 568 628 643 q 589 481 628 519 q 501 443 550 443 q 474 446 490 443 q 478 478 478 464 q 451 563 478 528 q 364 597 425 597 q 250 547 303 597 q 213 304 213 450 q 363 106 213 106 q 483 158 443 106 q 522 275 522 210 q 604 251 569 275 q 639 186 639 228 q 547 40 639 96 q 349 -17 454 -17 z "},"d":{"ha":775,"x_min":42,"x_max":718,"o":"m 513 1025 q 604 1042 557 1042 q 682 1010 651 1042 q 713 933 713 979 q 699 713 713 886 q 685 373 685 540 q 718 17 685 206 q 614 0 668 0 q 522 129 522 0 q 540 283 522 172 q 437 100 482 160 q 349 16 392 40 q 260 -8 307 -8 q 98 69 154 -8 q 42 261 42 147 q 83 476 42 375 q 206 644 124 576 q 382 711 289 711 q 543 686 475 711 q 513 1025 540 865 m 543 568 q 396 593 475 593 q 260 547 317 593 q 213 296 213 435 q 231 174 213 232 q 290 115 249 115 q 435 258 354 115 q 543 568 517 401 z "},"e":{"ha":675,"x_min":28,"x_max":617,"o":"m 197 315 q 229 158 197 215 q 336 100 261 100 q 453 151 411 100 q 496 274 496 201 q 578 250 543 274 q 613 185 613 226 q 521 41 613 99 q 328 -17 429 -17 q 99 69 169 -17 q 28 322 28 154 q 123 605 28 490 q 376 719 218 719 q 551 670 485 719 q 617 517 617 621 q 523 362 617 414 q 294 310 429 310 q 197 315 247 310 m 199 425 q 286 417 240 417 q 454 454 386 417 q 463 507 463 488 q 428 581 463 556 q 333 606 393 606 q 224 567 272 606 q 199 425 199 494 z "},"f":{"ha":539,"x_min":7,"x_max":692,"o":"m 144 226 q 132 551 144 251 q 24 528 64 547 q 7 592 7 558 q 31 647 7 625 q 86 668 54 668 q 132 667 118 668 q 239 933 139 824 q 490 1042 339 1042 q 633 1006 575 1042 q 692 899 692 969 q 654 814 692 849 q 565 779 617 779 q 538 782 554 779 q 542 814 542 800 q 521 892 542 863 q 447 922 500 922 q 350 892 394 922 q 306 788 322 854 q 289 657 289 721 l 321 657 q 539 686 413 657 q 556 620 556 658 q 524 557 556 582 q 443 532 492 532 q 286 551 442 532 l 300 -171 q 193 -261 300 -261 q 99 -244 157 -261 q 144 226 144 -62 z "},"g":{"ha":767,"x_min":42,"x_max":711,"o":"m 544 571 q 399 593 471 593 q 263 550 326 593 q 213 338 213 450 q 231 210 213 272 q 290 149 249 149 q 417 283 338 149 q 544 571 496 418 m 336 -228 q 475 -167 425 -228 q 525 -10 525 -106 q 519 128 525 38 q 511 256 513 218 q 339 44 413 83 q 260 25 301 25 q 99 107 156 25 q 42 307 42 189 q 142 590 42 468 q 398 711 243 711 q 711 657 553 711 q 669 365 669 508 q 679 197 669 297 q 689 47 689 96 q 581 -235 689 -124 q 303 -347 472 -347 q 131 -309 203 -347 q 60 -190 60 -271 q 97 -106 60 -140 q 186 -71 135 -71 q 214 -74 197 -71 q 210 -106 210 -92 q 247 -192 210 -156 q 336 -228 285 -228 z "},"h":{"ha":810,"x_min":72,"x_max":740,"o":"m 714 561 l 700 256 q 740 8 700 133 q 653 -8 697 -8 q 532 119 532 -8 q 549 342 532 214 q 565 499 565 469 q 500 571 565 571 q 346 441 431 571 q 249 224 261 311 q 276 17 251 183 q 182 0 233 0 q 75 104 75 0 q 90 301 75 154 q 106 536 106 447 q 72 1025 106 832 q 164 1042 117 1042 q 242 1010 211 1042 q 274 925 274 979 q 259 701 274 871 q 244 438 244 532 q 387 626 293 540 q 574 711 481 711 q 714 561 714 711 z "},"i":{"ha":354,"x_min":69,"x_max":285,"o":"m 78 690 q 167 703 122 703 q 244 675 213 703 q 276 603 276 647 q 262 452 276 560 q 247 285 247 344 q 276 17 247 129 q 183 0 233 0 q 104 23 133 0 q 75 90 75 46 q 92 233 75 133 q 108 399 108 333 q 78 690 108 572 m 96 1004 q 192 1026 144 1026 q 262 1002 239 1026 q 285 931 285 978 q 253 847 285 883 q 172 811 222 811 q 69 918 69 811 q 96 1004 69 965 z "},"j":{"ha":358,"x_min":-233,"x_max":282,"o":"m 88 1004 q 183 1026 136 1026 q 253 1002 231 1026 q 276 931 276 978 q 245 847 276 883 q 164 811 214 811 q 61 918 61 811 q 88 1004 61 965 m -79 -107 q -83 -139 -83 -126 q -14 -228 -83 -228 q 55 -178 26 -228 q 96 -53 83 -129 q 118 204 118 83 q 67 676 118 440 q 165 703 110 703 q 251 674 219 703 q 282 596 282 644 q 256 61 282 393 q 86 -315 232 -235 q -48 -347 29 -347 q -179 -313 -125 -347 q -233 -224 -233 -279 q -195 -136 -233 -168 q -107 -104 -157 -104 q -79 -107 -96 -104 z "},"k":{"ha":764,"x_min":72,"x_max":750,"o":"m 244 438 q 390 626 293 540 q 585 711 486 711 q 724 564 724 711 q 655 403 724 489 q 501 268 586 318 q 598 165 540 200 q 750 108 656 129 q 724 23 750 54 q 651 -8 699 -8 q 467 83 557 -8 q 331 286 376 174 q 484 392 419 331 q 549 514 549 453 q 511 575 549 575 q 351 443 439 575 q 249 224 263 311 q 276 17 251 183 q 182 0 233 0 q 75 104 75 0 q 90 301 75 154 q 106 536 106 447 q 72 1025 106 832 q 164 1042 117 1042 q 242 1010 211 1042 q 274 925 274 979 q 259 701 274 871 q 244 438 244 532 z "},"l":{"ha":374,"x_min":88,"x_max":292,"o":"m 88 1025 q 179 1042 132 1042 q 258 1010 226 1042 q 289 926 289 979 q 274 712 289 872 q 260 460 260 551 q 292 17 260 233 q 197 0 247 0 q 90 104 90 0 q 106 301 90 154 q 121 536 121 447 q 88 1025 121 832 z "},"m":{"ha":1228,"x_min":76,"x_max":1158,"o":"m 1133 561 l 1119 264 q 1158 8 1119 129 q 1069 -8 1119 -8 q 951 124 951 -8 q 967 324 951 183 q 982 501 982 465 q 925 571 982 571 q 776 443 863 571 q 689 243 689 315 q 728 25 696 133 q 639 8 675 8 q 521 140 521 8 q 536 326 521 196 q 551 490 551 457 q 489 560 551 560 q 390 496 446 560 q 297 355 335 432 q 256 232 258 278 q 283 17 263 113 q 191 0 239 0 q 113 23 143 0 q 83 87 83 46 q 96 234 83 128 q 108 445 108 340 q 76 686 108 550 q 171 703 121 703 q 252 674 221 703 q 283 596 283 644 q 274 474 283 571 q 404 633 325 565 q 563 700 483 700 q 703 550 703 700 q 699 467 703 513 q 831 638 750 564 q 993 711 913 711 q 1133 561 1133 711 z "},"n":{"ha":814,"x_min":76,"x_max":744,"o":"m 719 561 l 706 256 q 744 8 706 129 q 656 -8 706 -8 q 538 124 538 -8 q 553 324 538 183 q 568 501 568 465 q 506 571 568 571 q 402 505 460 571 q 303 358 344 439 q 256 224 263 276 q 283 17 261 115 q 191 0 239 0 q 113 23 143 0 q 83 87 83 46 q 96 234 83 128 q 108 445 108 340 q 76 686 108 550 q 171 703 121 703 q 252 674 221 703 q 283 601 283 644 q 272 464 283 558 q 410 637 325 563 q 579 711 494 711 q 719 561 719 711 z "},"o":{"ha":715,"x_min":28,"x_max":678,"o":"m 325 -17 q 249 -17 325 -17 q 100 73 172 -17 q 28 323 28 163 q 124 601 28 483 q 369 719 219 719 q 678 372 678 719 q 578 97 678 210 q 325 -17 478 -17 m 225 567 q 200 406 200 486 q 206 281 200 325 q 226 192 211 236 q 352 101 258 101 q 476 151 446 101 q 506 306 506 201 q 365 601 506 601 q 225 567 285 601 z "},"p":{"ha":796,"x_min":69,"x_max":754,"o":"m 251 136 q 383 115 308 115 q 515 144 458 115 q 583 424 583 261 q 526 588 583 588 q 367 444 456 588 q 251 136 279 301 m 251 421 q 578 711 399 711 q 713 634 672 711 q 754 439 754 557 q 654 131 754 269 q 403 -8 554 -8 q 246 19 317 -8 q 269 -329 249 -171 q 178 -346 225 -346 q 100 -315 131 -346 q 69 -219 69 -283 q 86 -1 69 -156 q 103 240 103 153 q 72 686 103 529 q 166 703 117 703 q 242 674 215 703 q 269 585 269 646 q 251 421 269 525 z "},"q":{"ha":769,"x_min":42,"x_max":717,"o":"m 711 658 q 679 265 679 382 q 717 -331 679 -28 q 628 -347 675 -347 q 547 -315 581 -347 q 514 -235 514 -283 q 524 31 514 -151 q 538 275 535 213 q 349 15 444 69 q 260 -8 307 -8 q 98 69 154 -8 q 42 264 42 147 q 142 578 42 444 q 410 711 242 711 q 711 658 578 711 m 544 571 q 419 593 471 593 q 261 549 315 593 q 213 294 213 438 q 231 173 213 231 q 290 115 249 115 q 418 258 339 115 q 544 571 497 401 z "},"r":{"ha":635,"x_min":69,"x_max":633,"o":"m 276 17 q 185 0 233 0 q 106 23 136 0 q 76 87 76 46 q 89 236 76 128 q 101 447 101 344 q 69 686 101 549 q 157 703 114 703 q 231 674 200 703 q 263 596 263 644 q 254 522 263 571 q 244 447 246 472 q 373 641 299 571 q 521 711 447 711 q 603 675 572 711 q 633 584 633 639 q 606 495 633 529 q 537 461 578 461 q 471 469 496 461 q 475 500 475 486 q 435 557 475 557 q 320 434 374 557 q 249 204 267 311 q 276 17 256 100 z "},"s":{"ha":632,"x_min":42,"x_max":611,"o":"m 196 253 q 192 221 192 233 q 226 133 192 164 q 317 103 260 103 q 413 124 375 103 q 451 189 451 146 q 410 258 451 232 q 312 299 369 283 q 196 333 254 314 q 97 392 138 351 q 56 493 56 432 q 157 654 56 589 q 369 719 258 719 q 556 669 492 719 q 593 592 593 640 q 556 515 593 544 q 467 485 519 485 q 439 488 456 485 q 443 519 443 506 q 413 581 443 560 q 330 601 382 601 q 235 581 278 601 q 218 524 218 558 q 258 467 218 489 q 356 430 299 446 q 472 394 414 414 q 571 331 531 374 q 611 225 611 289 q 508 52 611 121 q 294 -17 404 -17 q 113 23 185 -17 q 42 143 42 63 q 78 224 42 193 q 168 256 115 256 q 196 253 179 256 z "},"t":{"ha":549,"x_min":21,"x_max":528,"o":"m 126 907 q 217 929 171 929 q 291 900 263 929 q 319 814 319 871 q 313 685 319 757 q 511 714 417 685 q 528 649 528 686 q 495 590 528 613 q 429 567 463 567 q 354 575 396 567 q 300 585 313 583 q 292 535 299 572 q 282 469 286 497 q 271 306 271 393 q 394 115 271 115 q 500 147 440 115 q 518 79 518 121 q 473 15 518 38 q 365 -8 428 -8 q 121 269 121 -8 q 133 415 121 310 q 144 586 144 521 q 38 563 78 582 q 21 620 21 588 q 44 674 21 653 q 103 696 68 696 q 149 694 138 696 q 150 724 150 706 q 126 907 150 828 z "},"u":{"ha":767,"x_min":63,"x_max":697,"o":"m 88 142 l 101 431 q 63 686 101 565 q 158 703 101 703 q 269 579 269 703 q 254 384 269 510 q 239 201 239 258 q 301 132 239 132 q 390 195 339 132 q 477 337 440 258 q 521 465 514 415 q 497 686 513 618 q 588 703 542 703 q 666 674 635 703 q 697 601 697 644 q 685 458 697 558 q 672 249 672 358 q 697 17 672 140 q 600 0 643 0 q 514 114 514 0 q 525 253 514 164 q 390 63 469 135 q 228 -8 310 -8 q 88 142 88 -8 z "},"v":{"ha":738,"x_min":14,"x_max":724,"o":"m 615 220 q 591 173 615 220 q 493 58 567 125 q 346 -8 419 -8 q 233 42 272 -8 q 176 173 193 93 q 147 338 160 253 q 101 503 133 422 q 14 624 69 583 q 68 680 32 657 q 146 703 104 703 q 251 619 211 703 q 303 433 292 535 q 330 237 315 332 q 364 128 344 142 q 447 188 411 131 q 499 328 482 246 q 529 563 529 478 q 521 693 529 647 q 604 703 569 703 q 724 589 724 703 q 694 416 724 517 q 615 220 664 315 z "},"w":{"ha":1072,"x_min":14,"x_max":1058,"o":"m 14 625 q 136 703 57 703 q 219 648 188 703 q 265 513 251 593 q 286 351 278 433 q 338 128 307 147 q 433 294 392 142 q 475 523 475 446 q 467 646 475 600 q 550 656 515 656 q 669 542 669 656 q 688 252 669 364 q 733 119 707 140 q 800 181 772 122 q 840 322 828 239 q 864 563 864 479 q 856 693 864 647 q 939 703 904 703 q 1058 589 1058 703 q 1029 415 1058 517 q 953 216 1000 313 q 838 51 906 119 q 704 -17 771 -17 q 589 97 628 -17 q 539 321 558 183 q 521 254 526 275 q 501 192 515 233 q 476 128 488 150 q 447 75 465 106 q 408 31 428 44 q 301 -8 360 -8 q 203 44 242 -8 q 151 179 165 97 q 125 347 136 261 q 14 625 99 567 z "},"x":{"ha":715,"x_min":14,"x_max":708,"o":"m 708 94 q 683 19 708 46 q 614 -8 657 -8 q 537 9 571 -8 q 469 67 503 26 q 417 135 436 107 q 315 306 389 178 q 176 0 176 174 q 60 26 107 0 q 14 104 14 53 q 48 199 14 156 q 158 307 82 243 q 258 396 233 371 q 153 523 206 476 q 21 600 101 569 q 51 674 21 646 q 121 703 81 703 q 194 688 161 703 q 251 655 226 674 q 304 600 275 636 q 394 475 339 560 q 444 538 428 514 q 486 703 486 600 q 572 699 538 703 q 635 673 606 694 q 665 613 665 651 q 626 531 665 574 q 528 442 588 488 q 451 379 468 397 q 571 188 511 258 q 708 94 631 118 z "},"y":{"ha":767,"x_min":63,"x_max":697,"o":"m 88 231 l 101 431 q 63 686 101 565 q 158 703 101 703 q 269 579 269 703 q 254 422 269 524 q 239 283 239 321 q 240 227 239 244 q 247 186 242 210 q 302 139 256 139 q 402 213 349 139 q 488 378 456 288 q 521 521 521 468 q 497 686 514 631 q 588 703 542 703 q 666 674 635 703 q 697 596 697 644 q 419 -314 697 -162 q 278 -347 357 -347 q 140 -306 199 -347 q 81 -189 81 -264 q 118 -105 81 -139 q 207 -71 156 -71 q 235 -74 218 -71 q 231 -106 231 -92 q 315 -228 231 -228 q 408 -172 367 -228 q 475 -36 450 -117 q 524 261 524 128 q 410 80 482 149 q 256 11 339 11 q 88 231 88 11 z "},"z":{"ha":613,"x_min":21,"x_max":585,"o":"m 285 694 l 492 699 q 563 679 540 699 q 585 619 585 660 q 538 521 585 578 q 431 410 492 464 q 306 282 371 357 q 214 144 242 207 q 335 136 264 136 q 567 179 493 136 q 585 97 585 143 q 553 22 585 51 q 474 -8 521 -8 q 334 2 428 -8 q 189 13 240 13 q 38 0 138 13 q 21 65 21 28 q 104 230 21 128 q 290 437 188 332 q 417 588 393 542 q 350 573 396 583 q 278 557 304 563 q 150 542 208 542 q 60 567 92 542 q 29 641 29 593 q 47 715 29 689 q 285 694 136 694 z "},"{":{"ha":532,"x_min":90,"x_max":467,"o":"m 467 1057 l 429 1061 q 342 1024 381 1058 q 304 919 304 989 q 323 803 304 885 q 342 678 342 722 q 201 475 342 532 q 305 411 268 457 q 344 299 342 365 q 322 169 343 253 q 301 35 301 85 q 333 -48 301 -15 q 413 -81 365 -81 q 464 -71 432 -81 q 430 -144 464 -117 q 340 -172 396 -172 q 207 -112 260 -172 q 154 64 154 -51 q 166 168 154 104 q 178 283 178 232 q 90 439 178 428 q 122 514 90 488 q 149 538 135 525 q 172 582 163 551 q 181 660 181 613 q 167 773 181 707 q 153 883 153 839 q 217 1075 153 1007 q 364 1143 281 1143 q 442 1116 418 1143 q 467 1057 467 1089 z "},"|":{"ha":350,"x_min":97,"x_max":253,"o":"m 244 -329 q 170 -347 206 -347 q 116 -326 135 -347 q 97 -256 97 -304 q 109 70 97 -208 q 121 666 121 349 q 106 1274 121 983 q 180 1292 144 1292 q 234 1270 215 1292 q 253 1215 253 1249 q 241 890 253 1119 q 229 343 229 661 q 244 -329 229 25 z "},"}":{"ha":532,"x_min":65,"x_max":442,"o":"m 65 -85 l 103 -89 q 190 -51 151 -86 q 228 53 228 -17 q 209 169 228 88 q 190 294 190 250 q 331 497 190 440 q 227 561 264 515 q 188 674 190 607 q 210 803 189 719 q 231 938 231 888 q 199 1020 231 988 q 119 1053 167 1053 q 68 1043 100 1053 q 102 1117 68 1089 q 192 1144 136 1144 q 325 1084 272 1144 q 378 908 378 1024 q 366 804 378 868 q 354 689 354 740 q 442 533 354 544 q 411 458 442 485 q 383 434 397 447 q 360 390 369 421 q 351 313 351 360 q 365 199 351 265 q 379 89 379 133 q 315 -103 379 -35 q 168 -171 251 -171 q 90 -144 114 -171 q 65 -85 65 -117 z "},"~":{"ha":731,"x_min":63,"x_max":668,"o":"m 654 464 q 668 406 668 432 q 626 324 668 358 q 527 290 583 290 q 366 319 471 290 q 204 349 261 349 q 76 303 115 349 q 63 361 63 335 q 107 433 63 403 q 217 463 151 463 q 377 440 283 463 q 526 418 471 418 q 654 464 615 418 z "}," ":{"ha":392,"x_min":0,"x_max":0,"o":""},"¡":{"ha":442,"x_min":104,"x_max":338,"o":"m 278 536 q 188 515 235 515 q 104 601 104 515 q 135 679 104 647 q 210 711 167 711 q 277 685 254 711 q 300 617 300 660 q 278 536 300 574 m 338 -308 q 230 -339 288 -339 q 141 -313 172 -339 q 110 -242 110 -287 q 128 -31 110 -196 q 147 222 147 135 q 138 369 147 310 q 194 386 161 386 q 248 370 228 386 q 268 325 268 354 q 270 69 268 158 q 289 -136 272 -21 q 338 -308 306 -251 z "},"¢":{"ha":799,"x_min":63,"x_max":736,"o":"m 363 908 q 416 919 388 919 q 463 898 444 919 q 482 848 482 876 q 481 808 482 819 q 657 770 589 808 q 725 657 725 732 q 681 570 725 608 q 582 532 638 532 q 551 535 568 532 q 556 580 556 553 q 533 639 556 607 q 464 682 510 671 q 444 436 444 554 q 451 214 444 318 q 567 274 529 225 q 606 381 606 322 q 697 356 658 381 q 736 292 736 332 q 653 158 736 213 q 463 92 571 104 l 474 -22 q 417 -33 440 -33 q 354 21 354 -33 q 357 90 354 38 q 139 193 215 104 q 63 425 63 282 q 145 668 63 568 q 374 797 228 768 q 363 908 365 869 m 235 444 q 371 215 235 240 q 392 505 392 411 q 385 682 392 599 q 281 631 325 671 q 235 444 235 558 z "},"£":{"ha":790,"x_min":42,"x_max":776,"o":"m 78 358 q 61 417 61 386 q 139 485 61 485 q 218 479 154 485 l 218 521 q 310 803 218 686 q 563 921 401 921 q 696 885 642 921 q 750 779 750 849 q 713 694 750 729 q 624 660 675 660 q 596 663 613 660 q 600 694 600 681 q 529 801 600 801 q 382 521 382 801 l 382 468 l 390 468 q 565 483 517 468 q 582 426 582 456 q 504 358 582 358 q 378 368 450 358 q 306 126 368 219 q 389 122 310 126 q 532 117 468 117 q 760 189 656 117 q 776 89 776 133 q 742 14 776 44 q 664 -17 708 -17 q 451 -8 589 -17 q 211 0 314 0 q 58 -19 108 0 q 42 49 42 8 q 74 112 42 89 q 154 135 106 135 q 175 133 168 135 q 217 375 210 218 q 78 358 139 374 z "},"¤":{"ha":731,"x_min":60,"x_max":669,"o":"m 594 728 q 643 692 618 718 q 668 632 668 665 q 588 526 668 599 q 601 442 601 482 q 549 294 601 358 q 669 193 638 214 q 578 119 631 119 q 453 218 538 119 q 334 192 396 192 q 225 221 272 192 q 138 118 165 156 q 88 153 113 129 q 63 212 63 178 q 143 318 63 246 q 128 400 128 357 q 175 553 128 486 q 60 651 97 625 q 94 699 68 674 q 147 724 121 724 q 268 633 194 724 q 393 663 326 663 q 511 626 460 663 q 594 728 569 689 m 371 293 q 460 325 419 293 q 501 403 501 357 q 463 523 501 481 q 360 565 425 565 q 250 540 294 565 q 231 450 231 508 q 371 293 231 293 z "},"¥":{"ha":821,"x_min":14,"x_max":807,"o":"m 706 251 q 721 200 721 228 q 651 139 721 139 q 504 144 582 139 q 519 17 506 114 q 425 0 475 0 q 338 32 375 0 q 301 113 301 64 l 301 156 q 272 157 293 157 q 101 139 164 157 q 86 190 86 161 q 151 251 86 251 q 307 243 217 251 q 313 308 310 264 q 272 310 297 310 q 101 292 164 310 q 86 343 86 314 q 156 404 86 404 q 310 397 157 404 q 14 840 203 731 q 136 913 47 913 q 315 790 233 913 q 443 531 381 692 q 600 754 542 657 q 658 921 658 851 q 765 890 722 921 q 807 800 807 858 q 742 700 807 775 q 603 533 678 625 q 508 385 528 442 l 551 385 q 719 404 660 385 q 735 353 735 381 q 665 292 735 292 q 500 299 608 292 l 500 232 l 538 232 q 706 251 646 232 z "},"¦":{"ha":343,"x_min":97,"x_max":246,"o":"m 118 813 l 119 1022 q 99 1274 119 1171 q 173 1292 138 1292 q 227 1270 208 1292 q 246 1204 246 1249 q 238 1040 246 1160 q 231 865 231 919 q 233 747 231 811 q 170 736 200 736 q 129 755 140 736 q 118 813 118 774 m 225 132 l 224 -78 q 244 -329 224 -226 q 170 -347 206 -347 q 116 -326 135 -347 q 97 -260 97 -304 q 105 -95 97 -215 q 113 79 113 25 q 110 197 113 133 q 173 208 143 208 q 214 190 203 208 q 225 132 225 171 z "},"§":{"ha":713,"x_min":56,"x_max":657,"o":"m 219 161 q 188 176 219 161 q 113 247 157 190 q 69 392 69 303 q 138 553 69 482 q 69 728 69 617 q 175 917 69 840 q 414 994 281 994 q 563 956 503 994 q 624 849 624 917 q 587 742 624 782 q 496 703 550 703 q 457 707 475 703 q 464 758 464 731 q 438 845 464 819 q 358 871 413 871 q 260 850 303 871 q 238 767 238 817 q 260 686 238 718 q 321 635 283 654 q 403 598 358 615 q 492 558 447 581 q 574 506 536 536 q 657 301 657 438 q 606 136 657 214 q 657 -33 657 68 q 561 -260 657 -172 q 322 -347 465 -347 q 133 -290 211 -347 q 56 -131 56 -232 q 88 -40 56 -75 q 164 -6 121 -6 q 236 -17 207 -6 q 225 -85 225 -56 q 262 -192 225 -154 q 359 -231 299 -231 q 458 -187 419 -231 q 496 -72 496 -144 q 452 41 496 0 q 345 107 408 82 q 219 161 282 132 m 243 490 q 233 424 233 454 q 247 366 233 394 q 292 317 261 338 q 349 283 322 296 q 423 251 375 269 q 496 219 471 232 q 500 269 500 242 q 493 319 500 296 q 470 360 486 342 q 438 393 454 379 q 394 422 422 407 q 348 444 367 436 q 294 467 329 453 q 243 490 260 482 z "},"¨":{"ha":668,"x_min":97,"x_max":571,"o":"m 108 1008 q 190 1025 144 1025 q 260 953 260 1025 q 233 888 260 914 q 172 863 207 863 q 117 882 136 863 q 97 938 97 901 q 108 1008 97 975 m 419 1008 q 501 1025 456 1025 q 571 953 571 1025 q 544 888 571 914 q 483 863 518 863 q 428 882 447 863 q 408 938 408 901 q 419 1008 408 975 z "},"©":{"ha":1110,"x_min":63,"x_max":1047,"o":"m 585 792 q 720 749 661 792 q 779 639 779 707 q 755 580 779 604 q 696 556 731 556 q 633 564 661 556 q 637 604 638 576 q 615 657 636 632 q 547 682 593 682 q 458 656 501 682 q 426 481 426 574 q 558 282 426 282 q 638 320 617 282 q 660 428 660 358 q 788 363 788 428 q 711 227 788 282 q 540 172 635 172 q 351 250 415 172 q 288 462 288 328 q 368 694 288 596 q 585 792 449 792 m 541 -24 q 436 -24 541 -24 q 197 124 332 -24 q 63 479 63 271 q 215 838 63 688 q 569 989 367 989 q 910 847 772 989 q 1047 496 1047 704 q 899 132 1047 288 q 541 -24 750 -24 m 158 482 q 274 181 158 304 q 553 57 389 57 q 835 186 718 57 q 951 492 951 315 q 844 788 951 668 q 557 908 736 908 q 281 822 406 908 q 158 482 158 694 z "},"ª":{"ha":497,"x_min":49,"x_max":449,"o":"m 439 947 q 422 738 422 847 q 449 554 422 628 q 396 544 428 544 q 322 622 322 544 q 335 714 322 660 q 296 630 313 661 q 248 569 279 599 q 182 539 217 539 q 83 587 118 539 q 49 704 49 635 q 103 901 49 822 q 254 981 158 981 q 439 947 350 981 m 326 867 q 255 876 290 876 q 193 858 219 876 q 171 756 171 808 q 208 643 171 643 q 269 714 232 643 q 326 867 306 785 z "},"«":{"ha":1051,"x_min":69,"x_max":982,"o":"m 574 161 q 495 106 561 106 q 304 201 429 106 q 69 413 179 296 q 525 739 415 631 q 579 676 579 724 q 510 561 579 629 q 318 399 442 493 q 574 161 440 242 m 976 161 q 898 106 964 106 q 707 201 832 106 q 472 413 582 296 q 928 739 818 631 q 982 676 982 724 q 913 561 982 629 q 721 399 844 493 q 976 161 843 242 z "},"¬":{"ha":789,"x_min":63,"x_max":726,"o":"m 708 521 q 696 342 696 411 q 726 203 696 272 q 633 186 676 186 q 565 209 590 186 q 539 276 539 232 q 561 392 539 296 q 317 401 357 401 q 79 365 153 401 q 63 421 63 388 q 90 473 63 454 q 161 492 118 492 q 708 521 460 492 z "},"­":{"ha":688,"x_min":76,"x_max":611,"o":"m 594 415 q 611 352 611 388 q 581 296 611 317 q 515 275 550 275 q 416 285 479 275 q 310 296 353 296 q 93 275 169 296 q 76 338 76 303 q 107 394 76 374 q 174 415 138 415 q 278 405 210 415 q 435 394 346 394 q 594 415 524 394 z "},"®":{"ha":1110,"x_min":63,"x_max":1047,"o":"m 541 -24 q 436 -24 541 -24 q 197 124 332 -24 q 63 479 63 271 q 215 838 63 688 q 569 989 367 989 q 910 847 772 989 q 1047 496 1047 704 q 899 132 1047 288 q 541 -24 750 -24 m 622 478 q 713 345 660 401 q 819 272 767 289 q 797 208 819 232 q 735 185 775 185 q 579 300 663 185 q 482 539 496 415 q 573 567 538 539 q 608 642 608 596 q 539 692 608 692 q 456 682 504 692 q 449 449 449 589 q 468 200 449 308 q 408 190 444 190 q 340 217 371 190 q 308 280 308 244 q 317 388 308 315 q 325 553 325 460 q 304 754 325 647 q 556 793 447 793 q 760 658 760 793 q 721 548 760 599 q 622 478 682 497 m 158 482 q 274 181 158 304 q 553 57 389 57 q 835 186 718 57 q 951 492 951 315 q 844 788 951 668 q 557 908 736 908 q 281 822 406 908 q 158 482 158 694 z "},"¯":{"ha":635,"x_min":69,"x_max":565,"o":"m 139 968 l 379 954 q 550 968 489 954 q 565 917 565 951 q 496 856 565 856 l 256 869 q 85 856 146 869 q 69 907 69 872 q 139 968 69 968 z "},"°":{"ha":546,"x_min":56,"x_max":490,"o":"m 56 657 q 117 847 56 774 q 281 919 179 919 q 436 857 382 919 q 490 694 490 794 q 425 521 490 593 q 265 449 360 449 q 113 508 169 449 q 56 657 56 568 m 272 564 q 342 600 315 564 q 368 691 368 636 q 346 777 368 746 q 274 808 324 808 q 197 786 224 808 q 181 690 181 743 q 272 564 181 564 z "},"±":{"ha":729,"x_min":76,"x_max":653,"o":"m 636 501 q 653 435 653 474 q 622 372 653 396 q 540 347 592 347 q 419 360 522 347 q 440 194 419 251 q 374 178 413 178 q 310 201 335 178 q 286 256 286 224 q 297 368 286 288 q 93 347 165 367 q 76 414 76 375 q 107 477 76 453 q 189 501 138 501 q 307 489 204 501 q 286 654 307 599 q 353 671 314 671 q 416 648 392 671 q 440 586 440 625 q 426 481 440 581 l 433 481 q 636 501 565 481 m 636 161 q 653 94 653 133 q 622 31 653 56 q 553 7 592 7 q 438 17 515 7 q 265 28 361 28 q 93 7 169 28 q 76 74 76 35 q 107 137 76 113 q 176 161 138 161 q 296 151 214 161 q 472 140 378 140 q 636 161 565 140 z "},"²":{"ha":454,"x_min":49,"x_max":406,"o":"m 344 421 l 64 429 q 49 490 49 456 q 85 567 49 525 q 165 639 122 608 q 245 706 208 669 q 282 771 282 743 q 231 814 282 814 q 183 800 206 814 q 172 752 172 775 q 176 714 172 729 q 134 708 161 708 q 82 729 107 708 q 57 783 57 750 q 117 876 57 840 q 247 911 178 911 q 360 881 315 911 q 406 799 406 850 q 374 704 406 747 q 303 631 342 661 q 201 514 201 551 q 396 558 332 519 q 406 497 406 529 q 390 443 406 465 q 344 421 374 421 z "},"³":{"ha":478,"x_min":49,"x_max":429,"o":"m 181 592 q 175 562 175 581 q 190 528 175 543 q 229 513 206 513 q 290 571 290 513 q 277 608 290 593 q 242 622 264 622 q 194 669 194 622 q 201 700 194 685 q 232 697 211 697 q 283 764 283 697 q 271 799 283 785 q 233 814 258 814 q 188 803 207 814 q 176 757 176 778 q 181 717 176 736 q 157 714 164 714 q 93 733 118 714 q 68 788 68 753 q 121 880 68 849 q 244 911 174 911 q 360 881 314 911 q 407 791 407 851 q 342 689 407 731 q 429 585 429 664 q 364 462 429 507 q 223 417 299 417 q 98 442 147 417 q 49 518 49 468 q 75 573 49 550 q 133 596 101 596 q 181 592 165 596 z "},"´":{"ha":464,"x_min":69,"x_max":394,"o":"m 69 847 q 263 1042 194 917 q 356 1022 318 1042 q 394 963 394 1001 q 291 851 394 907 q 126 794 188 794 q 69 847 81 794 z "},"µ":{"ha":794,"x_min":53,"x_max":725,"o":"m 725 7 q 637 -8 685 -8 q 557 23 589 -8 q 525 103 525 54 q 535 231 525 153 q 397 58 481 133 q 228 -17 313 -17 q 144 6 176 -17 q 279 -299 149 -182 q 170 -349 226 -349 q 83 -317 114 -349 q 53 -228 53 -286 q 77 40 53 -169 q 101 408 101 250 q 63 686 101 565 q 158 703 101 703 q 269 579 269 703 q 254 380 269 510 q 239 193 239 250 q 301 124 239 124 q 459 268 369 124 q 549 493 549 413 q 525 686 542 608 q 616 703 569 703 q 694 674 663 703 q 725 601 725 644 q 713 454 725 558 q 700 240 700 350 q 725 7 700 131 z "},"¶":{"ha":1040,"x_min":14,"x_max":1026,"o":"m 544 875 l 535 875 q 428 640 428 875 q 469 349 428 497 q 368 335 419 335 q 113 421 213 335 q 14 656 14 507 q 124 897 14 804 q 392 989 233 989 q 580 983 474 989 q 736 976 686 976 q 1010 1033 875 976 q 1026 944 1026 994 q 996 863 1026 894 q 918 831 965 831 q 835 835 871 831 q 751 850 799 840 q 682 864 704 860 q 651 638 651 760 q 664 340 651 517 q 676 89 676 163 q 624 -119 676 -42 q 460 -197 572 -197 q 373 -170 410 -197 q 336 -99 336 -143 q 353 -25 336 -78 q 440 -56 396 -56 q 540 115 540 -56 q 516 434 540 256 q 492 717 492 613 q 544 875 492 822 z "},"·":{"ha":357,"x_min":69,"x_max":288,"o":"m 94 436 q 185 460 139 460 q 288 364 288 460 q 253 277 288 313 q 169 242 218 242 q 95 269 121 242 q 69 345 69 297 q 94 436 69 393 z "},"¸":{"ha":439,"x_min":124,"x_max":411,"o":"m 193 -167 q 169 -90 169 -129 q 215 13 169 -28 l 322 13 q 247 -82 247 -11 q 319 -68 278 -68 q 386 -97 361 -68 q 411 -175 411 -126 q 360 -299 411 -250 q 232 -347 308 -347 q 153 -324 183 -347 q 124 -256 124 -301 q 133 -219 124 -239 q 210 -242 169 -242 q 276 -228 251 -242 q 300 -192 300 -215 q 246 -153 300 -153 q 193 -167 218 -153 z "},"¹":{"ha":401,"x_min":49,"x_max":353,"o":"m 49 803 q 140 847 96 817 q 211 892 183 878 q 279 907 239 907 q 353 896 319 907 q 335 636 335 774 q 350 440 335 499 q 271 417 314 417 q 193 482 193 417 q 206 597 193 508 q 218 789 218 686 q 188 760 211 783 q 110 710 138 710 q 49 803 49 710 z "},"º":{"ha":486,"x_min":49,"x_max":438,"o":"m 92 589 q 70 617 92 589 q 49 742 49 644 q 106 910 49 839 q 253 981 163 981 q 438 772 438 981 q 378 603 438 674 q 226 533 318 533 q 92 589 135 533 m 182 863 q 169 774 169 817 q 246 633 169 633 q 303 659 289 633 q 317 738 317 685 q 249 879 317 879 q 182 863 211 879 z "},"»":{"ha":1051,"x_min":69,"x_max":982,"o":"m 478 683 q 556 739 490 739 q 747 644 622 739 q 982 432 872 549 q 526 106 636 214 q 472 168 472 121 q 541 283 472 215 q 733 446 610 351 q 478 683 611 603 m 75 683 q 153 739 88 739 q 344 644 219 739 q 579 432 469 549 q 124 106 233 214 q 69 168 69 121 q 138 283 69 215 q 331 446 207 351 q 75 683 208 603 z "},"¼":{"ha":999,"x_min":49,"x_max":950,"o":"m 753 49 q 757 121 753 50 q 601 126 614 125 q 546 194 546 133 q 722 442 642 354 q 822 482 760 482 q 900 471 860 482 q 882 225 882 386 q 942 243 906 229 q 950 189 950 218 q 893 119 950 119 l 883 119 q 897 0 886 51 q 825 -8 867 -8 q 753 49 753 -8 m 656 219 q 719 214 688 214 q 763 215 751 214 q 768 308 768 257 q 765 371 768 360 q 656 219 724 322 m 146 8 q 413 401 251 101 q 665 840 608 760 q 778 919 722 919 q 864 888 835 919 q 611 515 763 796 q 350 57 408 138 q 235 -24 292 -24 q 146 8 178 -24 m 49 803 q 110 710 49 710 q 188 760 138 710 q 218 789 211 783 q 206 597 218 686 q 193 480 193 508 q 210 434 193 451 q 271 417 228 417 q 350 440 314 417 q 335 636 335 499 q 353 896 335 774 q 279 907 319 907 q 216 894 239 907 q 142 849 193 882 q 49 803 92 815 z "},"½":{"ha":1036,"x_min":49,"x_max":988,"o":"m 926 -4 l 646 4 q 631 65 631 31 q 667 142 631 100 q 747 214 703 183 q 828 281 792 244 q 864 346 864 318 q 813 389 864 389 q 765 375 788 389 q 754 327 754 350 q 758 289 754 304 q 716 283 743 283 q 664 304 689 283 q 639 358 639 325 q 699 451 639 415 q 828 486 760 486 q 942 456 897 486 q 988 374 988 425 q 956 279 988 322 q 886 206 924 236 q 783 89 783 126 q 978 133 914 94 q 988 72 988 104 q 972 18 988 40 q 926 -4 956 -4 m 146 8 q 413 401 251 101 q 665 840 608 760 q 778 919 722 919 q 864 888 835 919 q 611 515 763 796 q 350 57 408 138 q 235 -24 292 -24 q 146 8 178 -24 m 49 803 q 110 710 49 710 q 188 760 138 710 q 218 789 211 783 q 206 597 218 686 q 193 480 193 508 q 210 434 193 451 q 271 417 228 417 q 350 440 314 417 q 335 636 335 499 q 353 896 335 774 q 279 907 319 907 q 216 894 239 907 q 142 849 193 882 q 49 803 92 815 z "},"¾":{"ha":1006,"x_min":49,"x_max":957,"o":"m 181 592 q 175 562 175 581 q 190 528 175 543 q 229 513 206 513 q 290 571 290 513 q 277 608 290 593 q 242 622 264 622 q 194 669 194 622 q 201 700 194 685 q 232 697 211 697 q 283 764 283 697 q 271 799 283 785 q 233 814 258 814 q 188 803 207 814 q 176 757 176 778 q 181 717 176 736 q 157 714 164 714 q 93 733 118 714 q 68 788 68 753 q 121 880 68 849 q 244 911 174 911 q 360 881 314 911 q 407 791 407 851 q 342 689 407 731 q 429 585 429 664 q 364 462 429 507 q 223 417 299 417 q 98 442 147 417 q 49 518 49 468 q 75 573 49 550 q 133 596 101 596 q 181 592 165 596 m 156 8 q 422 401 261 101 q 675 840 618 760 q 788 919 732 919 q 874 888 844 919 q 621 515 772 796 q 360 57 418 138 q 244 -24 301 -24 q 156 8 188 -24 m 760 49 q 764 121 760 50 q 608 126 621 125 q 553 194 553 133 q 729 442 649 354 q 829 482 767 482 q 907 471 867 482 q 889 225 889 386 q 949 243 913 229 q 957 189 957 218 q 900 119 957 119 l 890 119 q 904 0 893 51 q 832 -8 874 -8 q 760 49 760 -8 m 663 219 q 726 214 694 214 q 769 215 758 214 q 775 308 775 257 q 772 371 775 360 q 663 219 731 322 z "},"¿":{"ha":715,"x_min":76,"x_max":639,"o":"m 346 61 q 328 44 346 61 q 286 -17 311 26 q 261 -107 261 -60 q 286 -182 261 -154 q 360 -210 311 -210 q 440 -165 410 -210 q 469 -67 469 -121 q 461 26 469 -14 q 507 33 486 33 q 601 -3 563 33 q 639 -96 639 -40 q 542 -272 639 -204 q 329 -339 444 -339 q 145 -285 214 -339 q 76 -133 76 -232 q 115 -12 76 -74 q 198 91 153 49 q 281 191 243 133 q 319 303 319 249 q 311 357 319 328 q 391 383 346 383 q 469 356 436 383 q 501 287 501 329 q 476 204 501 244 q 416 130 451 164 q 346 61 381 96 m 479 538 q 399 515 438 515 q 306 601 306 515 q 337 679 306 647 q 412 711 368 711 q 478 687 456 711 q 501 619 501 663 q 479 538 501 575 z "},"À":{"ha":854,"x_min":14,"x_max":847,"o":"m 311 975 q 417 994 369 994 q 529 944 489 994 q 592 800 569 893 q 620 678 599 772 q 656 525 642 583 q 734 243 699 343 q 847 83 769 143 q 792 17 831 42 q 710 -8 754 -8 q 561 144 608 -8 q 521 283 539 215 q 401 267 472 267 q 225 282 329 267 q 182 29 182 114 q 183 3 182 11 q 122 0 165 0 q 47 27 79 0 q 14 104 14 54 q 147 511 14 174 q 311 975 281 849 m 257 399 q 370 392 313 392 q 493 404 428 392 q 408 840 481 461 q 257 399 322 617 m 558 1125 q 501 1072 547 1072 q 337 1128 440 1072 q 233 1240 233 1185 q 272 1299 233 1279 q 365 1319 310 1319 q 558 1125 433 1194 z "},"Á":{"ha":854,"x_min":14,"x_max":847,"o":"m 311 975 q 417 994 369 994 q 529 944 489 994 q 592 800 569 893 q 620 678 599 772 q 656 525 642 583 q 734 243 699 343 q 847 83 769 143 q 792 17 831 42 q 710 -8 754 -8 q 561 144 608 -8 q 521 283 539 215 q 401 267 472 267 q 225 282 329 267 q 182 29 182 114 q 183 3 182 11 q 122 0 165 0 q 47 27 79 0 q 14 104 14 54 q 147 511 14 174 q 311 975 281 849 m 257 399 q 370 392 313 392 q 493 404 428 392 q 408 840 481 461 q 257 399 322 617 m 344 1125 q 538 1319 469 1194 q 631 1299 593 1319 q 669 1240 669 1279 q 566 1128 669 1185 q 401 1072 463 1072 q 344 1125 356 1072 z "},"Â":{"ha":854,"x_min":14,"x_max":847,"o":"m 311 975 q 417 994 369 994 q 529 944 489 994 q 592 800 569 893 q 620 678 599 772 q 656 525 642 583 q 734 243 699 343 q 847 83 769 143 q 792 17 831 42 q 710 -8 754 -8 q 561 144 608 -8 q 521 283 539 215 q 401 267 472 267 q 225 282 329 267 q 182 29 182 114 q 183 3 182 11 q 122 0 165 0 q 47 27 79 0 q 14 104 14 54 q 147 511 14 174 q 311 975 281 849 m 257 399 q 370 392 313 392 q 493 404 428 392 q 408 840 481 461 q 257 399 322 617 m 682 1111 q 631 1072 664 1072 q 535 1107 599 1072 q 418 1183 471 1142 q 251 1072 292 1072 q 192 1111 210 1072 q 278 1188 251 1157 q 332 1256 304 1219 q 361 1294 360 1293 q 460 1347 403 1347 q 565 1206 500 1276 q 682 1111 631 1136 z "},"Ã":{"ha":854,"x_min":14,"x_max":847,"o":"m 311 975 q 417 994 369 994 q 529 944 489 994 q 592 800 569 893 q 620 678 599 772 q 656 525 642 583 q 734 243 699 343 q 847 83 769 143 q 792 17 831 42 q 710 -8 754 -8 q 561 144 608 -8 q 521 283 539 215 q 401 267 472 267 q 225 282 329 267 q 182 29 182 114 q 183 3 182 11 q 122 0 165 0 q 47 27 79 0 q 14 104 14 54 q 147 511 14 174 q 311 975 281 849 m 257 399 q 370 392 313 392 q 493 404 428 392 q 408 840 481 461 q 257 399 322 617 m 672 1251 q 686 1188 686 1225 q 651 1119 686 1151 q 572 1086 617 1086 q 434 1113 526 1086 q 288 1140 342 1140 q 194 1099 235 1140 q 181 1159 181 1125 q 218 1222 181 1193 q 310 1250 256 1250 q 445 1230 364 1250 q 579 1210 526 1210 q 672 1251 632 1210 z "},"Ä":{"ha":854,"x_min":14,"x_max":847,"o":"m 311 975 q 417 994 369 994 q 529 944 489 994 q 592 800 569 893 q 620 678 599 772 q 656 525 642 583 q 734 243 699 343 q 847 83 769 143 q 792 17 831 42 q 710 -8 754 -8 q 561 144 608 -8 q 521 283 539 215 q 401 267 472 267 q 225 282 329 267 q 182 29 182 114 q 183 3 182 11 q 122 0 165 0 q 47 27 79 0 q 14 104 14 54 q 147 511 14 174 q 311 975 281 849 m 257 399 q 370 392 313 392 q 493 404 428 392 q 408 840 481 461 q 257 399 322 617 m 197 1286 q 279 1303 233 1303 q 349 1231 349 1303 q 322 1166 349 1192 q 260 1140 296 1140 q 206 1160 225 1140 q 186 1216 186 1179 q 197 1286 186 1253 m 508 1286 q 590 1303 544 1303 q 660 1231 660 1303 q 633 1166 660 1192 q 572 1140 607 1140 q 517 1160 536 1140 q 497 1216 497 1179 q 508 1286 497 1253 z "},"Å":{"ha":854,"x_min":14,"x_max":847,"o":"m 311 975 q 417 994 369 994 q 529 944 489 994 q 592 800 569 893 q 620 678 599 772 q 656 525 642 583 q 734 243 699 343 q 847 83 769 143 q 792 17 831 42 q 710 -8 754 -8 q 561 144 608 -8 q 521 283 539 215 q 401 267 472 267 q 225 282 329 267 q 182 29 182 114 q 183 3 182 11 q 122 0 165 0 q 47 27 79 0 q 14 104 14 54 q 147 511 14 174 q 311 975 281 849 m 257 399 q 370 392 313 392 q 493 404 428 392 q 408 840 481 461 q 257 399 322 617 m 544 1204 q 544 1178 544 1204 q 504 1115 544 1153 q 413 1078 464 1078 q 332 1108 363 1078 q 301 1190 301 1138 q 340 1281 301 1242 q 432 1319 379 1319 q 515 1288 485 1319 q 544 1204 544 1256 m 376 1205 q 376 1194 376 1205 q 392 1167 376 1183 q 427 1151 407 1151 q 459 1163 447 1151 q 471 1194 471 1174 q 455 1231 471 1214 q 418 1247 439 1247 q 383 1239 397 1247 q 376 1205 376 1226 z "},"Æ":{"ha":1147,"x_min":14,"x_max":1106,"o":"m 282 399 q 403 392 338 392 q 533 404 468 392 q 518 536 528 447 q 475 849 497 733 q 363 598 426 758 q 282 399 299 438 m 639 8 q 574 68 585 8 q 544 283 567 108 q 422 267 496 267 q 243 282 347 267 q 178 10 186 117 q 110 0 146 0 q 44 23 74 0 q 14 94 14 46 q 81 290 14 143 q 243 640 147 436 q 385 975 339 843 q 509 994 450 994 q 686 986 568 994 q 897 978 804 978 q 1071 1003 990 978 q 1088 931 1088 972 q 1055 856 1088 890 q 976 822 1022 822 q 825 834 931 822 q 649 846 719 846 q 682 585 669 676 q 847 578 747 578 q 1015 599 946 578 q 1032 531 1032 571 q 1001 463 1032 490 q 923 435 969 435 q 803 445 876 435 q 697 457 731 456 q 749 131 726 240 q 1093 192 954 131 q 1106 103 1106 153 q 1072 22 1106 53 q 991 -8 1038 -8 q 826 0 944 -8 q 639 8 708 8 z "},"Ç":{"ha":850,"x_min":35,"x_max":822,"o":"m 386 -167 q 363 -87 363 -129 q 383 -14 363 -44 q 124 130 213 3 q 35 456 35 257 q 162 845 35 688 q 506 1003 289 1003 q 717 932 626 1003 q 807 749 807 861 q 774 650 807 689 q 692 611 740 611 q 614 624 643 611 q 618 671 618 646 q 575 813 617 758 q 453 868 533 868 q 306 817 374 868 q 243 664 265 758 q 221 478 221 569 q 280 222 221 325 q 464 118 339 118 q 619 206 579 118 q 657 408 657 282 q 775 383 728 408 q 822 299 822 357 q 715 83 822 171 q 467 -15 608 -4 q 440 -82 440 -42 q 513 -68 471 -68 q 579 -97 554 -68 q 604 -175 604 -126 q 553 -299 604 -250 q 425 -347 501 -347 q 347 -324 376 -347 q 317 -256 317 -301 q 326 -219 317 -239 q 403 -242 363 -242 q 469 -228 444 -242 q 493 -192 493 -215 q 439 -153 493 -153 q 386 -167 411 -153 z "},"È":{"ha":796,"x_min":83,"x_max":726,"o":"m 710 192 q 726 107 726 154 q 694 26 726 60 q 614 -8 661 -8 q 153 8 467 -8 q 108 24 128 10 q 89 61 89 39 q 101 310 89 135 q 113 637 113 485 q 83 986 113 789 q 360 978 186 978 q 692 1003 533 978 q 708 930 708 972 q 676 855 708 888 q 595 822 643 822 q 442 836 547 822 q 288 850 338 850 q 275 586 276 710 q 463 578 363 578 q 636 607 564 578 q 653 534 653 576 q 620 458 653 492 q 542 424 588 424 q 408 441 497 424 q 274 458 319 458 q 283 136 274 239 q 388 131 350 131 q 710 192 571 131 m 554 1125 q 497 1072 543 1072 q 333 1128 436 1072 q 229 1240 229 1185 q 267 1299 229 1279 q 361 1319 306 1319 q 554 1125 429 1194 z "},"É":{"ha":796,"x_min":83,"x_max":726,"o":"m 710 192 q 726 107 726 154 q 694 26 726 60 q 614 -8 661 -8 q 153 8 467 -8 q 108 24 128 10 q 89 61 89 39 q 101 310 89 135 q 113 637 113 485 q 83 986 113 789 q 360 978 186 978 q 692 1003 533 978 q 708 930 708 972 q 676 855 708 888 q 595 822 643 822 q 442 836 547 822 q 288 850 338 850 q 275 586 276 710 q 463 578 363 578 q 636 607 564 578 q 653 534 653 576 q 620 458 653 492 q 542 424 588 424 q 408 441 497 424 q 274 458 319 458 q 283 136 274 239 q 388 131 350 131 q 710 192 571 131 m 326 1125 q 519 1319 451 1194 q 613 1299 575 1319 q 651 1240 651 1279 q 548 1128 651 1185 q 383 1072 444 1072 q 326 1125 338 1072 z "},"Ê":{"ha":796,"x_min":83,"x_max":726,"o":"m 710 192 q 726 107 726 154 q 694 26 726 60 q 614 -8 661 -8 q 153 8 467 -8 q 108 24 128 10 q 89 61 89 39 q 101 310 89 135 q 113 637 113 485 q 83 986 113 789 q 360 978 186 978 q 692 1003 533 978 q 708 930 708 972 q 676 855 708 888 q 595 822 643 822 q 442 836 547 822 q 288 850 338 850 q 275 586 276 710 q 463 578 363 578 q 636 607 564 578 q 653 534 653 576 q 620 458 653 492 q 542 424 588 424 q 408 441 497 424 q 274 458 319 458 q 283 136 274 239 q 388 131 350 131 q 710 192 571 131 m 665 1111 q 615 1072 647 1072 q 518 1107 582 1072 q 401 1183 454 1142 q 234 1072 275 1072 q 175 1111 193 1072 q 261 1188 235 1157 q 315 1256 288 1219 q 344 1294 343 1293 q 443 1347 386 1347 q 549 1206 483 1276 q 665 1111 614 1136 z "},"Ë":{"ha":796,"x_min":83,"x_max":726,"o":"m 710 192 q 726 107 726 154 q 694 26 726 60 q 614 -8 661 -8 q 153 8 467 -8 q 108 24 128 10 q 89 61 89 39 q 101 310 89 135 q 113 637 113 485 q 83 986 113 789 q 360 978 186 978 q 692 1003 533 978 q 708 930 708 972 q 676 855 708 888 q 595 822 643 822 q 442 836 547 822 q 288 850 338 850 q 275 586 276 710 q 463 578 363 578 q 636 607 564 578 q 653 534 653 576 q 620 458 653 492 q 542 424 588 424 q 408 441 497 424 q 274 458 319 458 q 283 136 274 239 q 388 131 350 131 q 710 192 571 131 m 196 1286 q 278 1303 232 1303 q 347 1231 347 1303 q 321 1166 347 1192 q 259 1140 294 1140 q 204 1160 224 1140 q 185 1216 185 1179 q 196 1286 185 1253 m 507 1286 q 589 1303 542 1303 q 658 1231 658 1303 q 632 1166 658 1192 q 570 1140 606 1140 q 515 1160 535 1140 q 496 1216 496 1179 q 507 1286 496 1253 z "},"Ì":{"ha":386,"x_min":1,"x_max":326,"o":"m 303 17 q 208 0 258 0 q 122 32 158 0 q 85 119 85 64 q 99 333 85 175 q 113 585 113 490 q 83 969 113 828 q 178 986 128 986 q 265 954 228 986 q 301 867 301 922 q 288 653 301 811 q 274 401 274 496 q 303 17 274 158 m 326 1125 q 269 1072 315 1072 q 105 1128 208 1072 q 1 1240 1 1185 q 40 1299 1 1279 q 133 1319 78 1319 q 326 1125 201 1194 z "},"Í":{"ha":386,"x_min":72,"x_max":397,"o":"m 303 17 q 208 0 258 0 q 122 32 158 0 q 85 119 85 64 q 99 333 85 175 q 113 585 113 490 q 83 969 113 828 q 178 986 128 986 q 265 954 228 986 q 301 867 301 922 q 288 653 301 811 q 274 401 274 496 q 303 17 274 158 m 72 1125 q 265 1319 197 1194 q 359 1299 321 1319 q 397 1240 397 1279 q 294 1128 397 1185 q 129 1072 190 1072 q 72 1125 83 1072 z "},"Î":{"ha":386,"x_min":-49,"x_max":442,"o":"m 303 17 q 208 0 258 0 q 122 32 158 0 q 85 119 85 64 q 99 333 85 175 q 113 585 113 490 q 83 969 113 828 q 178 986 128 986 q 265 954 228 986 q 301 867 301 922 q 288 653 301 811 q 274 401 274 496 q 303 17 274 158 m 442 1111 q 391 1072 424 1072 q 294 1107 358 1072 q 178 1183 231 1142 q 10 1072 51 1072 q -49 1111 -31 1072 q 38 1188 11 1157 q 92 1256 64 1219 q 121 1294 119 1293 q 219 1347 163 1347 q 325 1206 260 1276 q 442 1111 390 1136 z "},"Ï":{"ha":386,"x_min":-43,"x_max":431,"o":"m 303 17 q 208 0 258 0 q 122 32 158 0 q 85 119 85 64 q 99 333 85 175 q 113 585 113 490 q 83 969 113 828 q 178 986 128 986 q 265 954 228 986 q 301 867 301 922 q 288 653 301 811 q 274 401 274 496 q 303 17 274 158 m -32 1286 q 50 1303 4 1303 q 119 1231 119 1303 q 93 1166 119 1192 q 31 1140 67 1140 q -24 1160 -4 1140 q -43 1216 -43 1179 q -32 1286 -43 1253 m 279 1286 q 361 1303 315 1303 q 431 1231 431 1303 q 404 1166 431 1192 q 342 1140 378 1140 q 288 1160 307 1140 q 268 1216 268 1179 q 279 1286 268 1253 z "},"Ð":{"ha":1008,"x_min":56,"x_max":967,"o":"m 222 557 q 189 931 219 800 q 569 997 389 997 q 858 867 749 997 q 967 551 967 736 q 858 153 967 314 q 717 28 804 74 q 518 -17 629 -17 q 181 54 347 -17 q 224 428 221 228 q 72 407 132 426 q 56 474 56 435 q 86 537 56 513 q 155 561 117 561 q 222 557 193 561 m 385 415 q 396 139 388 260 q 531 115 456 115 q 657 149 607 115 q 733 240 707 182 q 783 510 783 351 q 733 758 783 653 q 659 842 707 811 q 543 872 611 872 q 396 851 475 872 q 383 540 383 682 q 560 561 499 540 q 576 494 576 533 q 546 431 576 456 q 464 407 515 407 q 385 415 446 407 z "},"Ñ":{"ha":925,"x_min":83,"x_max":864,"o":"m 658 972 q 752 994 703 994 q 833 964 801 994 q 864 890 864 933 q 851 701 864 847 q 839 468 839 554 q 864 8 839 192 q 765 -8 819 -8 q 679 10 710 -8 q 264 660 590 61 q 258 406 258 606 q 289 17 258 207 q 196 0 246 0 q 115 32 146 0 q 83 108 83 64 q 97 294 83 153 q 110 508 110 436 q 83 967 110 785 q 197 986 122 986 q 303 926 272 986 q 696 218 508 508 q 692 500 692 485 q 658 972 692 760 m 711 1251 q 725 1188 725 1225 q 690 1119 725 1151 q 610 1086 656 1086 q 473 1113 565 1086 q 327 1140 381 1140 q 233 1099 274 1140 q 219 1159 219 1125 q 257 1222 219 1193 q 349 1250 294 1250 q 484 1230 403 1250 q 618 1210 565 1210 q 711 1251 671 1210 z "},"Ò":{"ha":961,"x_min":42,"x_max":919,"o":"m 736 506 q 669 773 736 671 q 458 875 601 875 q 306 819 372 875 q 247 663 268 761 q 225 475 225 564 q 292 213 225 311 q 503 114 358 114 q 638 178 582 114 q 736 506 736 293 m 456 -17 q 354 -17 456 -17 q 147 117 253 -17 q 42 469 42 251 q 172 844 42 686 q 505 1003 303 1003 q 813 867 707 1003 q 919 513 919 731 q 789 139 919 294 q 456 -17 658 -17 m 601 1125 q 544 1072 590 1072 q 380 1128 483 1072 q 276 1240 276 1185 q 315 1299 276 1279 q 408 1319 353 1319 q 601 1125 476 1194 z "},"Ó":{"ha":961,"x_min":42,"x_max":919,"o":"m 736 506 q 669 773 736 671 q 458 875 601 875 q 306 819 372 875 q 247 663 268 761 q 225 475 225 564 q 292 213 225 311 q 503 114 358 114 q 638 178 582 114 q 736 506 736 293 m 456 -17 q 354 -17 456 -17 q 147 117 253 -17 q 42 469 42 251 q 172 844 42 686 q 505 1003 303 1003 q 813 867 707 1003 q 919 513 919 731 q 789 139 919 294 q 456 -17 658 -17 m 388 1125 q 581 1319 513 1194 q 674 1299 636 1319 q 713 1240 713 1279 q 609 1128 713 1185 q 444 1072 506 1072 q 388 1125 399 1072 z "},"Ô":{"ha":961,"x_min":42,"x_max":919,"o":"m 736 506 q 669 773 736 671 q 458 875 601 875 q 306 819 372 875 q 247 663 268 761 q 225 475 225 564 q 292 213 225 311 q 503 114 358 114 q 638 178 582 114 q 736 506 736 293 m 456 -17 q 354 -17 456 -17 q 147 117 253 -17 q 42 469 42 251 q 172 844 42 686 q 505 1003 303 1003 q 813 867 707 1003 q 919 513 919 731 q 789 139 919 294 q 456 -17 658 -17 m 743 1111 q 692 1072 725 1072 q 596 1107 660 1072 q 479 1183 532 1142 q 312 1072 353 1072 q 253 1111 271 1072 q 339 1188 313 1157 q 393 1256 365 1219 q 422 1294 421 1293 q 521 1347 464 1347 q 626 1206 561 1276 q 743 1111 692 1136 z "},"Õ":{"ha":961,"x_min":42,"x_max":919,"o":"m 736 506 q 669 773 736 671 q 458 875 601 875 q 306 819 372 875 q 247 663 268 761 q 225 475 225 564 q 292 213 225 311 q 503 114 358 114 q 638 178 582 114 q 736 506 736 293 m 456 -17 q 354 -17 456 -17 q 147 117 253 -17 q 42 469 42 251 q 172 844 42 686 q 505 1003 303 1003 q 813 867 707 1003 q 919 513 919 731 q 789 139 919 294 q 456 -17 658 -17 m 729 1251 q 743 1188 743 1225 q 708 1119 743 1151 q 628 1086 674 1086 q 491 1113 583 1086 q 345 1140 399 1140 q 251 1099 292 1140 q 238 1159 238 1125 q 275 1222 238 1193 q 367 1250 313 1250 q 502 1230 421 1250 q 636 1210 583 1210 q 729 1251 689 1210 z "},"Ö":{"ha":961,"x_min":42,"x_max":919,"o":"m 736 506 q 669 773 736 671 q 458 875 601 875 q 306 819 372 875 q 247 663 268 761 q 225 475 225 564 q 292 213 225 311 q 503 114 358 114 q 638 178 582 114 q 736 506 736 293 m 456 -17 q 354 -17 456 -17 q 147 117 253 -17 q 42 469 42 251 q 172 844 42 686 q 505 1003 303 1003 q 813 867 707 1003 q 919 513 919 731 q 789 139 919 294 q 456 -17 658 -17 m 264 1286 q 346 1303 299 1303 q 415 1231 415 1303 q 389 1166 415 1192 q 327 1140 363 1140 q 272 1160 292 1140 q 253 1216 253 1179 q 264 1286 253 1253 m 575 1286 q 657 1303 610 1303 q 726 1231 726 1303 q 700 1166 726 1192 q 638 1140 674 1140 q 583 1160 603 1140 q 564 1216 564 1179 q 575 1286 564 1253 z "},"×":{"ha":624,"x_min":76,"x_max":547,"o":"m 472 581 q 521 544 496 571 q 546 492 546 518 q 537 447 546 465 q 503 408 528 429 q 396 332 471 381 q 547 185 482 228 q 456 111 508 111 q 356 175 406 111 q 297 258 338 199 q 154 110 203 179 q 104 145 129 121 q 79 206 79 169 q 110 272 79 242 q 226 358 140 301 q 76 504 132 468 q 111 551 85 526 q 161 576 138 576 q 199 571 185 576 q 222 559 213 565 q 246 536 232 553 q 268 508 260 519 q 294 470 276 497 q 324 428 313 443 l 329 432 q 472 581 435 521 z "},"Ø":{"ha":961,"x_min":42,"x_max":919,"o":"m 161 100 q 42 459 42 232 q 172 844 42 686 q 514 1003 303 1003 q 733 940 638 1003 q 736 944 733 942 q 819 994 769 994 q 894 964 868 994 q 811 868 847 914 q 919 516 919 738 q 789 139 919 294 q 447 -17 658 -17 q 240 36 326 -17 q 154 -17 203 -17 q 81 14 106 -17 q 161 100 113 39 m 269 242 q 444 490 372 382 q 647 804 515 599 q 458 879 576 879 q 304 822 369 879 q 244 665 265 764 q 222 475 222 565 q 269 242 222 331 m 700 721 q 326 168 583 560 q 503 110 393 110 q 639 175 583 110 q 739 506 739 293 q 700 721 739 631 z "},"Ù":{"ha":932,"x_min":81,"x_max":846,"o":"m 299 874 q 278 599 299 769 q 258 335 258 428 q 308 180 258 242 q 457 118 358 118 q 554 138 497 118 q 644 188 611 157 q 663 584 663 342 q 628 978 663 826 q 722 994 672 994 q 809 963 772 994 q 846 879 846 931 q 834 703 846 828 q 822 423 822 578 q 836 150 822 268 q 425 -17 633 -17 q 178 65 267 -17 q 90 300 90 146 q 99 476 90 349 q 108 661 108 603 q 81 969 108 871 q 175 986 125 986 q 262 954 225 986 q 299 874 299 922 m 550 1125 q 493 1072 539 1072 q 328 1128 432 1072 q 225 1240 225 1185 q 263 1299 225 1279 q 357 1319 301 1319 q 550 1125 425 1194 z "},"Ú":{"ha":932,"x_min":81,"x_max":846,"o":"m 299 874 q 278 599 299 769 q 258 335 258 428 q 308 180 258 242 q 457 118 358 118 q 554 138 497 118 q 644 188 611 157 q 663 584 663 342 q 628 978 663 826 q 722 994 672 994 q 809 963 772 994 q 846 879 846 931 q 834 703 846 828 q 822 423 822 578 q 836 150 822 268 q 425 -17 633 -17 q 178 65 267 -17 q 90 300 90 146 q 99 476 90 349 q 108 661 108 603 q 81 969 108 871 q 175 986 125 986 q 262 954 225 986 q 299 874 299 922 m 344 1125 q 538 1319 469 1194 q 631 1299 593 1319 q 669 1240 669 1279 q 566 1128 669 1185 q 401 1072 463 1072 q 344 1125 356 1072 z "},"Û":{"ha":932,"x_min":81,"x_max":846,"o":"m 299 874 q 278 599 299 769 q 258 335 258 428 q 308 180 258 242 q 457 118 358 118 q 554 138 497 118 q 644 188 611 157 q 663 584 663 342 q 628 978 663 826 q 722 994 672 994 q 809 963 772 994 q 846 879 846 931 q 834 703 846 828 q 822 423 822 578 q 836 150 822 268 q 425 -17 633 -17 q 178 65 267 -17 q 90 300 90 146 q 99 476 90 349 q 108 661 108 603 q 81 969 108 871 q 175 986 125 986 q 262 954 225 986 q 299 874 299 922 m 715 1111 q 665 1072 697 1072 q 568 1107 632 1072 q 451 1183 504 1142 q 284 1072 325 1072 q 225 1111 243 1072 q 311 1188 285 1157 q 365 1256 338 1219 q 394 1294 393 1293 q 493 1347 436 1347 q 599 1206 533 1276 q 715 1111 664 1136 z "},"Ü":{"ha":932,"x_min":81,"x_max":846,"o":"m 299 874 q 278 599 299 769 q 258 335 258 428 q 308 180 258 242 q 457 118 358 118 q 554 138 497 118 q 644 188 611 157 q 663 584 663 342 q 628 978 663 826 q 722 994 672 994 q 809 963 772 994 q 846 879 846 931 q 834 703 846 828 q 822 423 822 578 q 836 150 822 268 q 425 -17 633 -17 q 178 65 267 -17 q 90 300 90 146 q 99 476 90 349 q 108 661 108 603 q 81 969 108 871 q 175 986 125 986 q 262 954 225 986 q 299 874 299 922 m 244 1286 q 326 1303 281 1303 q 396 1231 396 1303 q 369 1166 396 1192 q 308 1140 343 1140 q 253 1160 272 1140 q 233 1216 233 1179 q 244 1286 233 1253 m 556 1286 q 638 1303 592 1303 q 707 1231 707 1303 q 681 1166 707 1192 q 619 1140 654 1140 q 564 1160 583 1140 q 544 1216 544 1179 q 556 1286 544 1253 z "},"Ý":{"ha":807,"x_min":7,"x_max":799,"o":"m 7 914 q 129 986 40 986 q 442 511 294 986 q 590 774 528 640 q 651 994 651 908 q 799 917 799 994 q 732 756 799 863 q 588 535 665 649 q 497 369 511 422 q 493 236 493 315 q 513 17 493 157 q 418 0 468 0 q 331 32 368 0 q 294 113 294 64 q 311 365 294 163 q 7 914 204 782 m 325 1125 q 518 1319 450 1194 q 612 1299 574 1319 q 650 1240 650 1279 q 547 1128 650 1185 q 382 1072 443 1072 q 325 1125 336 1072 z "},"Þ":{"ha":815,"x_min":85,"x_max":788,"o":"m 304 17 q 208 0 258 0 q 122 28 158 0 q 86 115 86 57 q 100 318 86 172 q 114 621 114 464 q 85 969 114 778 q 181 986 131 986 q 267 958 231 986 q 303 874 303 929 q 300 801 303 849 q 410 808 360 808 q 683 736 579 808 q 788 518 788 664 q 685 273 788 372 q 438 174 582 174 q 332 254 332 174 q 342 307 332 279 q 410 297 379 297 q 555 350 506 297 q 604 497 604 403 q 551 642 604 592 q 404 692 497 692 q 288 676 358 692 q 275 382 275 558 q 304 17 275 206 z "},"ß":{"ha":904,"x_min":7,"x_max":863,"o":"m 144 226 q 132 551 144 251 q 24 528 64 547 q 7 592 7 558 q 31 647 7 625 q 86 668 54 668 q 132 667 118 668 q 243 933 139 824 q 504 1042 347 1042 q 663 999 599 1042 q 728 872 728 956 q 694 776 728 822 q 619 700 660 729 q 511 582 511 624 q 547 514 511 540 q 635 467 583 488 q 738 422 686 447 q 826 346 790 396 q 863 225 863 296 q 778 45 863 115 q 587 -25 694 -25 q 407 17 479 -25 q 335 139 335 58 q 372 220 335 189 q 461 251 408 251 q 489 249 472 251 q 485 217 485 229 q 519 127 485 160 q 603 94 553 94 q 678 122 653 94 q 703 196 703 150 q 666 276 703 242 q 577 330 629 310 q 474 372 525 350 q 385 435 422 394 q 349 526 349 475 q 383 621 349 576 q 458 697 418 665 q 569 830 569 783 q 542 899 569 876 q 460 922 515 922 q 360 892 404 922 q 289 657 289 807 l 300 -171 q 193 -261 300 -261 q 99 -244 157 -261 q 144 226 144 -62 z "},"à":{"ha":767,"x_min":28,"x_max":707,"o":"m 707 654 q 669 334 669 494 q 706 17 669 174 q 603 0 656 0 q 529 31 550 0 q 508 122 508 63 q 526 283 508 181 q 336 17 428 72 q 250 -8 294 -8 q 86 70 144 -8 q 28 265 28 149 q 126 577 28 443 q 383 711 225 711 q 707 654 540 711 m 525 571 q 400 593 451 593 q 244 547 296 593 q 197 310 197 431 q 217 181 197 246 q 279 115 238 115 q 404 258 328 115 q 525 571 481 401 m 531 847 q 474 794 519 794 q 309 851 413 794 q 206 963 206 907 q 244 1022 206 1001 q 338 1042 282 1042 q 531 847 406 917 z "},"á":{"ha":767,"x_min":28,"x_max":707,"o":"m 707 654 q 669 334 669 494 q 706 17 669 174 q 603 0 656 0 q 529 31 550 0 q 508 122 508 63 q 526 283 508 181 q 336 17 428 72 q 250 -8 294 -8 q 86 70 144 -8 q 28 265 28 149 q 126 577 28 443 q 383 711 225 711 q 707 654 540 711 m 525 571 q 400 593 451 593 q 244 547 296 593 q 197 310 197 431 q 217 181 197 246 q 279 115 238 115 q 404 258 328 115 q 525 571 481 401 m 319 847 q 513 1042 444 917 q 606 1022 568 1042 q 644 963 644 1001 q 541 851 644 907 q 376 794 438 794 q 319 847 331 794 z "},"â":{"ha":767,"x_min":28,"x_max":707,"o":"m 707 654 q 669 334 669 494 q 706 17 669 174 q 603 0 656 0 q 529 31 550 0 q 508 122 508 63 q 526 283 508 181 q 336 17 428 72 q 250 -8 294 -8 q 86 70 144 -8 q 28 265 28 149 q 126 577 28 443 q 383 711 225 711 q 707 654 540 711 m 525 571 q 400 593 451 593 q 244 547 296 593 q 197 310 197 431 q 217 181 197 246 q 279 115 238 115 q 404 258 328 115 q 525 571 481 401 m 656 833 q 605 794 638 794 q 508 829 572 794 q 392 906 444 864 q 224 794 265 794 q 165 833 183 794 q 251 910 225 879 q 306 978 278 942 q 335 1017 333 1015 q 433 1069 376 1069 q 539 928 474 999 q 656 833 604 858 z "},"ã":{"ha":767,"x_min":28,"x_max":707,"o":"m 707 654 q 669 334 669 494 q 706 17 669 174 q 603 0 656 0 q 529 31 550 0 q 508 122 508 63 q 526 283 508 181 q 336 17 428 72 q 250 -8 294 -8 q 86 70 144 -8 q 28 265 28 149 q 126 577 28 443 q 383 711 225 711 q 707 654 540 711 m 525 571 q 400 593 451 593 q 244 547 296 593 q 197 310 197 431 q 217 181 197 246 q 279 115 238 115 q 404 258 328 115 q 525 571 481 401 m 636 974 q 650 910 650 947 q 615 841 650 874 q 535 808 581 808 q 398 835 490 808 q 252 863 306 863 q 158 821 199 863 q 144 881 144 847 q 182 944 144 915 q 274 972 219 972 q 409 952 328 972 q 543 932 490 932 q 636 974 596 932 z "},"ä":{"ha":767,"x_min":28,"x_max":707,"o":"m 707 654 q 669 334 669 494 q 706 17 669 174 q 603 0 656 0 q 529 31 550 0 q 508 122 508 63 q 526 283 508 181 q 336 17 428 72 q 250 -8 294 -8 q 86 70 144 -8 q 28 265 28 149 q 126 577 28 443 q 383 711 225 711 q 707 654 540 711 m 525 571 q 400 593 451 593 q 244 547 296 593 q 197 310 197 431 q 217 181 197 246 q 279 115 238 115 q 404 258 328 115 q 525 571 481 401 m 178 1008 q 260 1025 214 1025 q 329 953 329 1025 q 303 888 329 914 q 241 863 276 863 q 186 882 206 863 q 167 938 167 901 q 178 1008 167 975 m 489 1008 q 571 1025 524 1025 q 640 953 640 1025 q 614 888 640 914 q 552 863 588 863 q 497 882 517 863 q 478 938 478 901 q 489 1008 478 975 z "},"å":{"ha":767,"x_min":28,"x_max":707,"o":"m 707 654 q 669 334 669 494 q 706 17 669 174 q 603 0 656 0 q 529 31 550 0 q 508 122 508 63 q 526 283 508 181 q 336 17 428 72 q 250 -8 294 -8 q 86 70 144 -8 q 28 265 28 149 q 126 577 28 443 q 383 711 225 711 q 707 654 540 711 m 525 571 q 400 593 451 593 q 244 547 296 593 q 197 310 197 431 q 217 181 197 246 q 279 115 238 115 q 404 258 328 115 q 525 571 481 401 m 511 921 q 511 895 511 921 q 471 832 511 869 q 380 794 431 794 q 299 824 329 794 q 268 906 268 854 q 307 997 268 958 q 399 1036 346 1036 q 481 1004 451 1036 q 511 921 511 972 m 343 922 q 343 911 343 922 q 358 884 343 900 q 394 868 374 868 q 426 879 414 868 q 438 910 438 890 q 422 947 438 931 q 385 964 406 964 q 350 956 364 964 q 343 922 343 943 z "},"æ":{"ha":1115,"x_min":49,"x_max":1057,"o":"m 222 439 q 156 424 192 424 q 97 440 121 424 q 72 490 72 457 q 179 653 72 588 q 412 719 286 719 q 596 639 538 719 q 806 719 688 719 q 991 670 925 719 q 1057 517 1057 621 q 963 362 1057 414 q 735 310 869 310 q 638 315 688 310 q 669 158 638 215 q 776 100 701 100 q 894 151 851 100 q 936 274 936 201 q 1018 250 983 274 q 1053 185 1053 226 q 961 41 1053 99 q 768 -17 869 -17 q 496 139 557 -17 q 384 29 456 68 q 234 -10 313 -10 q 102 38 156 -10 q 49 170 49 86 q 127 324 49 254 q 350 394 206 394 q 501 375 421 394 q 511 468 511 422 q 368 603 511 603 q 247 578 313 603 q 218 479 218 528 q 222 439 218 460 m 639 425 q 726 417 681 417 q 894 454 825 417 q 903 507 903 488 q 868 581 903 556 q 773 606 833 606 q 664 567 713 606 q 639 425 639 494 m 482 292 q 367 306 431 306 q 257 290 304 306 q 224 179 224 247 q 237 117 224 143 q 279 90 250 90 q 397 156 331 90 q 482 292 464 221 z "},"ç":{"ha":689,"x_min":42,"x_max":639,"o":"m 301 -167 q 278 -87 278 -129 q 299 -14 278 -44 q 108 77 175 -1 q 42 290 42 156 q 143 595 42 471 q 413 719 244 719 q 568 681 508 719 q 628 568 628 643 q 589 481 628 519 q 501 443 550 443 q 474 446 490 443 q 478 478 478 464 q 451 563 478 528 q 364 597 425 597 q 250 547 303 597 q 213 304 213 450 q 363 106 213 106 q 483 158 443 106 q 522 275 522 210 q 604 251 569 275 q 639 186 639 228 q 561 50 639 104 q 383 -14 483 -4 q 356 -82 356 -42 q 428 -68 386 -68 q 494 -97 469 -68 q 519 -175 519 -126 q 468 -299 519 -250 q 340 -347 417 -347 q 262 -324 292 -347 q 232 -256 232 -301 q 242 -219 232 -239 q 319 -242 278 -242 q 384 -228 360 -242 q 408 -192 408 -215 q 354 -153 408 -153 q 301 -167 326 -153 z "},"è":{"ha":689,"x_min":42,"x_max":631,"o":"m 211 315 q 243 158 211 215 q 350 100 275 100 q 467 151 425 100 q 510 274 510 201 q 592 250 557 274 q 626 185 626 226 q 535 41 626 99 q 342 -17 443 -17 q 113 69 183 -17 q 42 322 42 154 q 137 605 42 490 q 390 719 232 719 q 565 670 499 719 q 631 517 631 621 q 537 362 631 414 q 308 310 443 310 q 211 315 261 310 m 213 425 q 300 417 254 417 q 468 454 400 417 q 476 507 476 488 q 442 581 476 556 q 347 606 407 606 q 238 567 286 606 q 213 425 213 494 m 506 847 q 449 794 494 794 q 284 851 388 794 q 181 963 181 907 q 219 1022 181 1001 q 313 1042 257 1042 q 506 847 381 917 z "},"é":{"ha":689,"x_min":42,"x_max":631,"o":"m 211 315 q 243 158 211 215 q 350 100 275 100 q 467 151 425 100 q 510 274 510 201 q 592 250 557 274 q 626 185 626 226 q 535 41 626 99 q 342 -17 443 -17 q 113 69 183 -17 q 42 322 42 154 q 137 605 42 490 q 390 719 232 719 q 565 670 499 719 q 631 517 631 621 q 537 362 631 414 q 308 310 443 310 q 211 315 261 310 m 213 425 q 300 417 254 417 q 468 454 400 417 q 476 507 476 488 q 442 581 476 556 q 347 606 407 606 q 238 567 286 606 q 213 425 213 494 m 283 847 q 476 1042 408 917 q 570 1022 532 1042 q 608 963 608 1001 q 505 851 608 907 q 340 794 401 794 q 283 847 294 794 z "},"ê":{"ha":689,"x_min":42,"x_max":633,"o":"m 211 315 q 243 158 211 215 q 350 100 275 100 q 467 151 425 100 q 510 274 510 201 q 592 250 557 274 q 626 185 626 226 q 535 41 626 99 q 342 -17 443 -17 q 113 69 183 -17 q 42 322 42 154 q 137 605 42 490 q 390 719 232 719 q 565 670 499 719 q 631 517 631 621 q 537 362 631 414 q 308 310 443 310 q 211 315 261 310 m 213 425 q 300 417 254 417 q 468 454 400 417 q 476 507 476 488 q 442 581 476 556 q 347 606 407 606 q 238 567 286 606 q 213 425 213 494 m 633 833 q 583 794 615 794 q 486 829 550 794 q 369 906 422 864 q 202 794 243 794 q 143 833 161 794 q 229 910 203 879 q 283 978 256 942 q 313 1017 311 1015 q 411 1069 354 1069 q 517 928 451 999 q 633 833 582 858 z "},"ë":{"ha":689,"x_min":42,"x_max":631,"o":"m 211 315 q 243 158 211 215 q 350 100 275 100 q 467 151 425 100 q 510 274 510 201 q 592 250 557 274 q 626 185 626 226 q 535 41 626 99 q 342 -17 443 -17 q 113 69 183 -17 q 42 322 42 154 q 137 605 42 490 q 390 719 232 719 q 565 670 499 719 q 631 517 631 621 q 537 362 631 414 q 308 310 443 310 q 211 315 261 310 m 213 425 q 300 417 254 417 q 468 454 400 417 q 476 507 476 488 q 442 581 476 556 q 347 606 407 606 q 238 567 286 606 q 213 425 213 494 m 154 1008 q 236 1025 190 1025 q 306 953 306 1025 q 279 888 306 914 q 217 863 253 863 q 163 882 182 863 q 143 938 143 901 q 154 1008 143 975 m 465 1008 q 547 1025 500 1025 q 617 953 617 1025 q 590 888 617 914 q 528 863 564 863 q 474 882 493 863 q 454 938 454 901 q 465 1008 454 975 z "},"ì":{"ha":369,"x_min":-21,"x_max":304,"o":"m 304 847 q 247 794 293 794 q 83 851 186 794 q -21 963 -21 907 q 17 1022 -21 1001 q 111 1042 56 1042 q 304 847 179 917 m 97 690 q 187 703 142 703 q 263 676 232 703 q 294 606 294 649 q 276 457 294 564 q 258 239 258 350 q 283 8 258 128 q 189 -8 239 -8 q 83 82 83 -8 q 103 227 83 117 q 122 406 122 338 q 97 690 122 590 z "},"í":{"ha":369,"x_min":78,"x_max":403,"o":"m 78 847 q 271 1042 203 917 q 365 1022 326 1042 q 403 963 403 1001 q 299 851 403 907 q 135 794 196 794 q 78 847 89 794 m 97 690 q 187 703 142 703 q 263 676 232 703 q 294 606 294 649 q 276 457 294 564 q 258 239 258 350 q 283 8 258 128 q 189 -8 239 -8 q 83 82 83 -8 q 103 227 83 117 q 122 406 122 338 q 97 690 122 590 z "},"î":{"ha":369,"x_min":-43,"x_max":447,"o":"m 447 833 q 397 794 429 794 q 300 829 364 794 q 183 906 236 864 q 16 794 57 794 q -43 833 -25 794 q 43 910 17 879 q 97 978 69 942 q 126 1017 125 1015 q 225 1069 168 1069 q 331 928 265 999 q 447 833 396 858 m 97 690 q 187 703 142 703 q 263 676 232 703 q 294 606 294 649 q 276 457 294 564 q 258 239 258 350 q 283 8 258 128 q 189 -8 239 -8 q 83 82 83 -8 q 103 227 83 117 q 122 406 122 338 q 97 690 122 590 z "},"ï":{"ha":369,"x_min":-39,"x_max":435,"o":"m -28 1008 q 54 1025 8 1025 q 124 953 124 1025 q 97 888 124 914 q 35 863 71 863 q -19 882 0 863 q -39 938 -39 901 q -28 1008 -39 975 m 283 1008 q 365 1025 319 1025 q 435 953 435 1025 q 408 888 435 914 q 347 863 382 863 q 292 882 311 863 q 272 938 272 901 q 283 1008 272 975 m 97 690 q 187 703 142 703 q 263 676 232 703 q 294 606 294 649 q 276 457 294 564 q 258 239 258 350 q 283 8 258 128 q 189 -8 239 -8 q 83 82 83 -8 q 103 227 83 117 q 122 406 122 338 q 97 690 122 590 z "},"ð":{"ha":747,"x_min":42,"x_max":706,"o":"m 201 915 q 232 1006 201 969 q 313 1042 263 1042 q 506 961 406 1042 q 603 1042 572 999 q 644 1026 626 1042 q 661 989 661 1011 q 578 888 661 936 q 706 475 706 722 q 617 101 706 228 q 356 -25 528 -25 q 126 68 211 -25 q 42 318 42 161 q 144 582 42 475 q 413 689 246 689 q 510 679 458 689 q 428 819 486 765 q 293 718 328 768 q 252 733 269 718 q 235 775 235 749 q 262 826 235 801 q 344 882 289 850 q 201 915 264 915 m 536 543 q 373 564 449 564 q 250 526 297 564 q 214 332 214 438 q 250 157 214 226 q 356 88 286 88 q 494 138 425 88 q 549 419 549 240 q 536 543 549 504 z "},"ñ":{"ha":814,"x_min":76,"x_max":744,"o":"m 719 561 l 706 256 q 744 8 706 129 q 656 -8 706 -8 q 538 124 538 -8 q 553 324 538 183 q 568 501 568 465 q 506 571 568 571 q 402 505 460 571 q 303 358 344 439 q 256 224 263 276 q 283 17 261 115 q 191 0 239 0 q 113 23 143 0 q 83 87 83 46 q 96 234 83 128 q 108 445 108 340 q 76 686 108 550 q 171 703 121 703 q 252 674 221 703 q 283 601 283 644 q 272 464 283 558 q 410 637 325 563 q 579 711 494 711 q 719 561 719 711 m 650 997 q 664 934 664 971 q 629 865 664 897 q 549 832 594 832 q 412 859 504 832 q 266 886 319 886 q 172 844 213 886 q 158 905 158 871 q 196 967 158 939 q 288 996 233 996 q 423 976 342 996 q 557 956 504 956 q 650 997 610 956 z "},"ò":{"ha":750,"x_min":47,"x_max":697,"o":"m 344 -17 q 268 -17 344 -17 q 119 73 192 -17 q 47 323 47 163 q 143 601 47 483 q 389 719 239 719 q 697 372 697 719 q 597 97 697 210 q 344 -17 497 -17 m 244 567 q 219 406 219 486 q 225 281 219 325 q 246 192 231 236 q 372 101 278 101 q 495 151 465 101 q 525 306 525 201 q 385 601 525 601 q 244 567 304 601 m 481 847 q 424 794 469 794 q 259 851 363 794 q 156 963 156 907 q 194 1022 156 1001 q 288 1042 232 1042 q 481 847 356 917 z "},"ó":{"ha":750,"x_min":47,"x_max":697,"o":"m 344 -17 q 268 -17 344 -17 q 119 73 192 -17 q 47 323 47 163 q 143 601 47 483 q 389 719 239 719 q 697 372 697 719 q 597 97 697 210 q 344 -17 497 -17 m 244 567 q 219 406 219 486 q 225 281 219 325 q 246 192 231 236 q 372 101 278 101 q 495 151 465 101 q 525 306 525 201 q 385 601 525 601 q 244 567 304 601 m 292 847 q 485 1042 417 917 q 578 1022 540 1042 q 617 963 617 1001 q 513 851 617 907 q 349 794 410 794 q 292 847 303 794 z "},"ô":{"ha":750,"x_min":47,"x_max":697,"o":"m 344 -17 q 268 -17 344 -17 q 119 73 192 -17 q 47 323 47 163 q 143 601 47 483 q 389 719 239 719 q 697 372 697 719 q 597 97 697 210 q 344 -17 497 -17 m 244 567 q 219 406 219 486 q 225 281 219 325 q 246 192 231 236 q 372 101 278 101 q 495 151 465 101 q 525 306 525 201 q 385 601 525 601 q 244 567 304 601 m 640 833 q 590 794 622 794 q 493 829 557 794 q 376 906 429 864 q 209 794 250 794 q 150 833 168 794 q 236 910 210 879 q 290 978 263 942 q 319 1017 318 1015 q 418 1069 361 1069 q 524 928 458 999 q 640 833 589 858 z "},"õ":{"ha":750,"x_min":47,"x_max":697,"o":"m 344 -17 q 268 -17 344 -17 q 119 73 192 -17 q 47 323 47 163 q 143 601 47 483 q 389 719 239 719 q 697 372 697 719 q 597 97 697 210 q 344 -17 497 -17 m 244 567 q 219 406 219 486 q 225 281 219 325 q 246 192 231 236 q 372 101 278 101 q 495 151 465 101 q 525 306 525 201 q 385 601 525 601 q 244 567 304 601 m 626 974 q 640 910 640 947 q 606 841 640 874 q 526 808 571 808 q 388 835 481 808 q 242 863 296 863 q 149 821 189 863 q 135 881 135 847 q 172 944 135 915 q 264 972 210 972 q 399 952 318 972 q 533 932 481 932 q 626 974 586 932 z "},"ö":{"ha":750,"x_min":47,"x_max":697,"o":"m 344 -17 q 268 -17 344 -17 q 119 73 192 -17 q 47 323 47 163 q 143 601 47 483 q 389 719 239 719 q 697 372 697 719 q 597 97 697 210 q 344 -17 497 -17 m 244 567 q 219 406 219 486 q 225 281 219 325 q 246 192 231 236 q 372 101 278 101 q 495 151 465 101 q 525 306 525 201 q 385 601 525 601 q 244 567 304 601 m 157 1008 q 239 1025 192 1025 q 308 953 308 1025 q 282 888 308 914 q 220 863 256 863 q 165 882 185 863 q 146 938 146 901 q 157 1008 146 975 m 468 1008 q 550 1025 504 1025 q 619 953 619 1025 q 593 888 619 914 q 531 863 567 863 q 476 882 496 863 q 457 938 457 901 q 468 1008 457 975 z "},"÷":{"ha":729,"x_min":76,"x_max":653,"o":"m 296 203 q 378 222 338 222 q 453 144 453 222 q 424 75 453 104 q 359 46 396 46 q 299 65 322 46 q 276 115 276 83 q 296 203 276 147 m 296 628 q 378 647 338 647 q 453 569 453 647 q 424 500 453 529 q 359 471 396 471 q 299 490 322 471 q 276 540 276 508 q 296 628 276 572 m 636 422 q 653 356 653 394 q 622 292 653 317 q 553 268 592 268 q 438 278 515 268 q 265 289 361 289 q 93 268 169 289 q 76 335 76 296 q 107 398 76 374 q 176 422 138 422 q 296 412 214 422 q 472 401 378 401 q 636 422 565 401 z "},"ø":{"ha":750,"x_min":47,"x_max":697,"o":"m 132 54 q 47 313 47 143 q 143 601 47 483 q 389 719 239 719 q 539 692 476 719 q 572 733 551 718 q 614 749 593 749 q 683 718 658 749 q 618 633 664 697 q 697 377 697 546 q 597 92 697 208 q 340 -25 496 -25 q 208 0 268 -25 q 132 -49 176 -49 q 65 -18 88 -49 q 132 54 101 15 m 242 572 q 217 374 217 490 q 240 190 217 258 q 359 360 317 292 q 474 565 401 429 q 385 607 442 607 q 242 572 303 607 m 429 347 q 283 121 344 219 q 378 88 319 88 q 497 142 467 88 q 528 303 528 196 q 513 478 528 411 q 429 347 465 406 z "},"ù":{"ha":794,"x_min":90,"x_max":725,"o":"m 115 142 l 129 431 q 90 686 129 565 q 186 703 129 703 q 297 579 297 703 q 282 384 297 510 q 267 201 267 258 q 329 132 267 132 q 417 195 367 132 q 505 337 468 258 q 549 465 542 415 q 525 686 540 618 q 616 703 569 703 q 694 674 663 703 q 725 601 725 644 q 713 458 725 558 q 700 249 700 358 q 725 17 700 140 q 628 0 671 0 q 542 114 542 0 q 553 253 542 164 q 417 63 497 135 q 256 -8 338 -8 q 115 142 115 -8 m 486 847 q 429 794 475 794 q 265 851 368 794 q 161 963 161 907 q 199 1022 161 1001 q 293 1042 238 1042 q 486 847 361 917 z "},"ú":{"ha":794,"x_min":90,"x_max":725,"o":"m 115 142 l 129 431 q 90 686 129 565 q 186 703 129 703 q 297 579 297 703 q 282 384 297 510 q 267 201 267 258 q 329 132 267 132 q 417 195 367 132 q 505 337 468 258 q 549 465 542 415 q 525 686 540 618 q 616 703 569 703 q 694 674 663 703 q 725 601 725 644 q 713 458 725 558 q 700 249 700 358 q 725 17 700 140 q 628 0 671 0 q 542 114 542 0 q 553 253 542 164 q 417 63 497 135 q 256 -8 338 -8 q 115 142 115 -8 m 293 847 q 486 1042 418 917 q 580 1022 542 1042 q 618 963 618 1001 q 515 851 618 907 q 350 794 411 794 q 293 847 304 794 z "},"û":{"ha":794,"x_min":90,"x_max":725,"o":"m 115 142 l 129 431 q 90 686 129 565 q 186 703 129 703 q 297 579 297 703 q 282 384 297 510 q 267 201 267 258 q 329 132 267 132 q 417 195 367 132 q 505 337 468 258 q 549 465 542 415 q 525 686 540 618 q 616 703 569 703 q 694 674 663 703 q 725 601 725 644 q 713 458 725 558 q 700 249 700 358 q 725 17 700 140 q 628 0 671 0 q 542 114 542 0 q 553 253 542 164 q 417 63 497 135 q 256 -8 338 -8 q 115 142 115 -8 m 642 833 q 591 794 624 794 q 494 829 558 794 q 378 906 431 864 q 210 794 251 794 q 151 833 169 794 q 238 910 211 879 q 292 978 264 942 q 321 1017 319 1015 q 419 1069 363 1069 q 525 928 460 999 q 642 833 590 858 z "},"ü":{"ha":794,"x_min":90,"x_max":725,"o":"m 115 142 l 129 431 q 90 686 129 565 q 186 703 129 703 q 297 579 297 703 q 282 384 297 510 q 267 201 267 258 q 329 132 267 132 q 417 195 367 132 q 505 337 468 258 q 549 465 542 415 q 525 686 540 618 q 616 703 569 703 q 694 674 663 703 q 725 601 725 644 q 713 458 725 558 q 700 249 700 358 q 725 17 700 140 q 628 0 671 0 q 542 114 542 0 q 553 253 542 164 q 417 63 497 135 q 256 -8 338 -8 q 115 142 115 -8 m 181 1008 q 263 1025 215 1025 q 332 953 332 1025 q 306 888 332 914 q 244 863 279 863 q 189 882 208 863 q 169 938 169 901 q 181 1008 169 975 m 492 1008 q 574 1025 528 1025 q 643 953 643 1025 q 617 888 643 914 q 555 863 590 863 q 500 882 519 863 q 481 938 481 901 q 492 1008 481 975 z "},"ý":{"ha":801,"x_min":97,"x_max":732,"o":"m 122 231 l 136 431 q 97 686 136 565 q 192 703 136 703 q 304 579 304 703 q 289 422 304 524 q 274 283 274 321 q 275 227 274 244 q 281 186 276 210 q 337 139 290 139 q 437 213 383 139 q 523 378 490 288 q 556 521 556 468 q 532 686 549 631 q 623 703 576 703 q 701 674 669 703 q 732 596 732 644 q 454 -314 732 -162 q 313 -347 392 -347 q 174 -306 233 -347 q 115 -189 115 -264 q 153 -105 115 -139 q 242 -71 190 -71 q 269 -74 253 -71 q 265 -106 265 -92 q 350 -228 265 -228 q 443 -172 401 -228 q 508 -36 485 -117 q 558 261 558 128 q 445 80 517 149 q 290 11 374 11 q 122 231 122 11 m 307 847 q 500 1042 432 917 q 594 1022 556 1042 q 632 963 632 1001 q 528 851 632 907 q 364 794 425 794 q 307 847 318 794 z "},"þ":{"ha":801,"x_min":76,"x_max":761,"o":"m 258 136 q 390 115 314 115 q 522 144 465 115 q 590 424 590 261 q 533 588 590 588 q 374 444 463 588 q 258 136 286 301 m 119 449 q 99 1025 119 763 q 189 1042 143 1042 q 268 1010 235 1042 q 301 929 301 978 q 285 667 301 846 q 264 425 268 489 q 405 632 328 553 q 581 711 482 711 q 720 634 679 711 q 761 439 761 557 q 661 131 761 269 q 410 -8 561 -8 q 253 19 324 -8 q 276 -329 256 -171 q 185 -346 232 -346 q 107 -315 138 -346 q 76 -229 76 -283 q 98 95 76 -126 q 119 449 119 317 z "},"ÿ":{"ha":801,"x_min":97,"x_max":732,"o":"m 122 231 l 136 431 q 97 686 136 565 q 192 703 136 703 q 304 579 304 703 q 289 422 304 524 q 274 283 274 321 q 275 227 274 244 q 281 186 276 210 q 337 139 290 139 q 437 213 383 139 q 523 378 490 288 q 556 521 556 468 q 532 686 549 631 q 623 703 576 703 q 701 674 669 703 q 732 596 732 644 q 454 -314 732 -162 q 313 -347 392 -347 q 174 -306 233 -347 q 115 -189 115 -264 q 153 -105 115 -139 q 242 -71 190 -71 q 269 -74 253 -71 q 265 -106 265 -92 q 350 -228 265 -228 q 443 -172 401 -228 q 508 -36 485 -117 q 558 261 558 128 q 445 80 517 149 q 290 11 374 11 q 122 231 122 11 m 188 1008 q 269 1025 222 1025 q 339 953 339 1025 q 313 888 339 914 q 251 863 286 863 q 196 882 215 863 q 176 938 176 901 q 188 1008 176 975 m 499 1008 q 581 1025 535 1025 q 650 953 650 1025 q 624 888 650 914 q 562 863 597 863 q 507 882 526 863 q 488 938 488 901 q 499 1008 488 975 z "},"ħ":{"ha":886,"x_min":28,"x_max":817,"o":"m 790 561 l 776 256 q 817 0 776 125 q 729 -17 774 -17 q 608 111 608 -17 q 625 338 608 206 q 642 499 642 469 q 576 571 642 571 q 470 503 529 571 q 372 351 411 435 q 332 217 332 267 q 353 8 332 124 q 258 -8 308 -8 q 153 82 153 -8 q 172 272 153 125 q 192 563 192 419 q 189 775 192 706 q 43 761 94 772 q 28 813 28 778 q 97 874 28 874 q 183 869 138 874 q 167 1025 179 946 q 258 1042 211 1042 q 336 1010 306 1042 q 367 925 367 979 q 364 860 367 901 q 508 874 451 860 q 524 822 524 857 q 454 761 524 761 q 354 767 399 761 q 328 438 328 556 q 467 626 376 542 q 650 711 558 711 q 790 561 790 711 z "},"Ĩ":{"ha":386,"x_min":-60,"x_max":446,"o":"m 303 17 q 208 0 258 0 q 122 32 158 0 q 85 119 85 64 q 99 333 85 175 q 113 585 113 490 q 83 969 113 828 q 178 986 128 986 q 265 954 228 986 q 301 867 301 922 q 288 653 301 811 q 274 401 274 496 q 303 17 274 158 m 432 1257 q 446 1194 446 1231 q 411 1124 446 1157 q 331 1092 376 1092 q 194 1119 286 1092 q 48 1146 101 1146 q -46 1104 -6 1146 q -60 1165 -60 1131 q -22 1227 -60 1199 q 69 1256 15 1256 q 205 1235 124 1256 q 339 1215 286 1215 q 432 1257 392 1215 z "},"ĩ":{"ha":346,"x_min":-74,"x_max":432,"o":"m 418 974 q 432 910 432 947 q 397 841 432 874 q 317 808 363 808 q 180 835 272 808 q 34 863 88 863 q -60 821 -19 863 q -74 881 -74 847 q -36 944 -74 915 q 56 972 1 972 q 191 952 110 972 q 325 932 272 932 q 418 974 378 932 m 76 690 q 166 703 121 703 q 242 676 211 703 q 274 606 274 649 q 256 457 274 564 q 238 239 238 350 q 263 8 238 128 q 168 -8 219 -8 q 63 82 63 -8 q 82 227 63 117 q 101 406 101 338 q 76 690 101 590 z "},"ı":{"ha":358,"x_min":69,"x_max":281,"o":"m 83 690 q 173 703 128 703 q 249 676 218 703 q 281 606 281 649 q 263 457 281 564 q 244 239 244 350 q 269 8 244 128 q 175 -8 225 -8 q 69 82 69 -8 q 89 227 69 117 q 108 406 108 338 q 83 690 108 590 z "},"ĳ":{"ha":713,"x_min":69,"x_max":636,"o":"m 78 690 q 167 703 122 703 q 244 675 213 703 q 276 603 276 647 q 262 452 276 560 q 247 285 247 344 q 276 17 247 129 q 183 0 233 0 q 104 23 133 0 q 75 90 75 46 q 92 233 75 133 q 108 399 108 333 q 78 690 108 572 m 96 1004 q 192 1026 144 1026 q 262 1002 239 1026 q 285 931 285 978 q 253 847 285 883 q 172 811 222 811 q 69 918 69 811 q 96 1004 69 965 m 442 1004 q 538 1026 490 1026 q 608 1002 585 1026 q 631 931 631 978 q 599 847 631 883 q 518 811 568 811 q 415 918 415 811 q 442 1004 415 965 m 275 -107 q 271 -139 271 -126 q 340 -228 271 -228 q 409 -178 381 -228 q 450 -53 438 -129 q 472 204 472 83 q 421 676 472 440 q 519 703 464 703 q 605 674 574 703 q 636 596 636 644 q 610 61 636 393 q 442 -315 586 -235 q 306 -347 383 -347 q 175 -313 229 -347 q 121 -224 121 -279 q 159 -136 121 -168 q 247 -104 197 -104 q 275 -107 258 -104 z "},"Ĵ":{"ha":618,"x_min":0,"x_max":579,"o":"m 128 1003 q 446 986 236 986 q 533 899 528 986 q 542 608 542 738 q 531 353 542 479 q 426 92 518 199 q 192 -15 333 -15 q 57 27 114 -15 q 0 131 0 69 q 34 233 0 193 q 119 272 68 272 q 165 263 144 272 q 156 206 156 238 q 177 148 156 175 q 235 121 199 121 q 298 148 272 121 q 336 225 324 175 q 367 512 367 338 q 349 849 367 686 q 277 838 326 849 q 208 828 228 828 q 111 926 111 828 q 128 1003 111 961 m 579 1117 q 528 1078 561 1078 q 432 1113 496 1078 q 315 1189 368 1147 q 148 1078 189 1078 q 89 1117 107 1078 q 175 1194 149 1163 q 229 1262 201 1225 q 258 1300 257 1299 q 357 1353 300 1353 q 463 1212 397 1282 q 579 1117 528 1142 z "},"ĵ":{"ha":400,"x_min":-206,"x_max":460,"o":"m -51 -107 q -56 -151 -56 -125 q -33 -202 -56 -176 q 29 -228 -10 -228 q 97 -178 68 -228 q 138 -53 125 -129 q 160 204 160 83 q 108 676 160 440 q 206 703 151 703 q 292 674 261 703 q 324 596 324 644 q 297 61 324 393 q 128 -315 274 -235 q -8 -347 71 -347 q -146 -313 -86 -347 q -206 -215 -206 -279 q -167 -136 -206 -168 q -79 -104 -129 -104 q -51 -107 -68 -104 m 460 833 q 409 794 442 794 q 313 829 376 794 q 196 906 249 864 q 28 794 69 794 q -31 833 -12 794 q 56 910 29 879 q 110 978 82 942 q 139 1017 138 1015 q 238 1069 181 1069 q 343 928 278 999 q 460 833 408 858 z "},"ķ":{"ha":764,"x_min":72,"x_max":750,"o":"m 651 -8 q 580 3 626 -8 q 499 15 533 15 q 433 -12 464 15 q 403 -82 403 -39 q 475 -68 433 -68 q 542 -97 517 -68 q 567 -175 567 -126 q 515 -299 567 -250 q 388 -347 464 -347 q 309 -324 339 -347 q 279 -256 279 -301 q 289 -219 279 -239 q 366 -242 325 -242 q 431 -228 407 -242 q 456 -192 456 -215 q 401 -153 456 -153 q 349 -167 374 -153 q 325 -81 325 -129 q 370 12 325 -32 q 474 56 415 56 q 499 54 489 56 q 331 286 386 143 q 484 392 419 331 q 549 514 549 453 q 511 575 549 575 q 351 443 439 575 q 249 224 263 311 q 276 17 251 183 q 182 0 233 0 q 75 104 75 0 q 90 301 75 154 q 106 536 106 447 q 72 1025 106 832 q 164 1042 117 1042 q 242 1010 211 1042 q 274 925 274 979 q 259 701 274 871 q 244 438 244 532 q 390 626 293 540 q 585 711 486 711 q 724 564 724 711 q 655 403 724 489 q 501 268 586 318 q 598 165 540 200 q 750 108 656 129 q 724 23 750 54 q 651 -8 699 -8 z "},"ĸ":{"ha":764,"x_min":74,"x_max":736,"o":"m 250 254 q 278 17 260 133 q 183 0 233 0 q 76 104 76 0 q 92 263 76 143 q 107 453 107 382 q 74 711 107 610 q 165 728 118 728 q 244 697 213 728 q 275 624 275 665 q 260 493 275 582 q 246 357 246 404 q 450 505 357 400 q 543 728 543 610 q 682 608 682 728 q 622 483 682 549 q 467 360 561 418 q 569 196 506 247 q 736 108 633 144 q 711 24 736 56 q 638 -8 686 -8 q 466 80 553 -8 q 338 292 379 168 q 250 254 299 271 z "},"ŀ":{"ha":661,"x_min":88,"x_max":592,"o":"m 88 1025 q 179 1042 132 1042 q 258 1010 226 1042 q 289 926 289 979 q 274 712 289 872 q 260 460 260 551 q 292 17 260 233 q 197 0 247 0 q 90 104 90 0 q 106 301 90 154 q 121 536 121 447 q 88 1025 121 832 m 399 436 q 489 460 443 460 q 592 364 592 460 q 557 277 592 313 q 474 242 522 242 q 399 269 425 242 q 374 345 374 297 q 399 436 374 393 z "},"Ł":{"ha":765,"x_min":28,"x_max":750,"o":"m 135 969 q 231 986 179 986 q 354 874 354 986 q 342 692 354 813 q 328 513 331 572 q 410 582 381 543 q 447 563 433 582 q 461 511 461 544 q 427 451 461 478 q 326 397 393 425 q 336 135 326 222 q 411 131 374 131 q 733 192 594 131 q 750 107 750 154 q 717 26 750 60 q 638 -8 685 -8 q 206 8 539 -8 q 160 24 179 10 q 140 61 140 39 q 153 322 140 117 q 79 258 103 292 q 42 277 56 258 q 28 328 28 296 q 61 388 28 361 q 160 442 94 415 q 164 576 164 508 q 135 969 164 781 z "},"ł":{"ha":489,"x_min":28,"x_max":461,"o":"m 144 1025 q 236 1042 189 1042 q 315 1010 283 1042 q 346 925 346 979 q 333 733 346 871 q 318 522 321 594 q 410 596 381 556 q 447 577 433 596 q 461 524 461 558 q 425 463 461 490 q 317 407 389 436 q 349 17 319 217 q 254 0 306 0 q 147 104 147 0 q 167 343 147 132 q 79 272 106 308 q 42 291 56 272 q 28 344 28 310 q 65 405 28 378 q 175 461 101 432 q 178 536 178 511 q 144 1025 178 832 z "},"Ń":{"ha":925,"x_min":83,"x_max":864,"o":"m 658 972 q 752 994 703 994 q 833 964 801 994 q 864 890 864 933 q 851 701 864 847 q 839 468 839 554 q 864 8 839 192 q 765 -8 819 -8 q 679 10 710 -8 q 264 660 590 61 q 258 406 258 606 q 289 17 258 207 q 196 0 246 0 q 115 32 146 0 q 83 108 83 64 q 97 294 83 153 q 110 508 110 436 q 83 967 110 785 q 197 986 122 986 q 303 926 272 986 q 696 218 508 508 q 692 500 692 485 q 658 972 692 760 m 356 1131 q 549 1325 481 1200 q 642 1305 604 1325 q 681 1246 681 1285 q 577 1134 681 1190 q 413 1078 474 1078 q 356 1131 367 1078 z "},"ń":{"ha":814,"x_min":76,"x_max":744,"o":"m 719 561 l 706 256 q 744 8 706 129 q 656 -8 706 -8 q 538 124 538 -8 q 553 324 538 183 q 568 501 568 465 q 506 571 568 571 q 402 505 460 571 q 303 358 344 439 q 256 224 263 276 q 283 17 261 115 q 191 0 239 0 q 113 23 143 0 q 83 87 83 46 q 96 234 83 128 q 108 445 108 340 q 76 686 108 550 q 171 703 121 703 q 252 674 221 703 q 283 601 283 644 q 272 464 283 558 q 410 637 325 563 q 579 711 494 711 q 719 561 719 711 m 286 847 q 479 1042 411 917 q 573 1022 535 1042 q 611 963 611 1001 q 508 851 611 907 q 343 794 404 794 q 286 847 297 794 z "},"Œ":{"ha":1393,"x_min":42,"x_max":1351,"o":"m 1335 192 q 1351 107 1351 154 q 1319 26 1351 60 q 1239 -8 1286 -8 q 819 8 1103 -8 q 775 24 794 10 q 756 61 756 39 l 756 124 q 443 -17 633 -17 q 147 117 253 -17 q 42 469 42 251 q 172 844 42 686 q 514 1003 303 1003 q 761 903 664 1003 l 750 986 q 917 978 833 978 q 1317 1003 1158 978 q 1333 930 1333 972 q 1301 855 1333 888 q 1220 822 1268 822 q 1067 836 1172 822 q 913 850 963 850 q 900 586 901 710 q 1088 578 988 578 q 1261 607 1189 578 q 1278 534 1278 576 q 1245 458 1278 492 q 1167 424 1213 424 q 1033 441 1122 424 q 899 458 944 458 q 908 136 899 239 q 1013 131 975 131 q 1335 192 1196 131 m 736 506 q 669 773 736 671 q 458 875 601 875 q 306 819 372 875 q 247 663 268 761 q 225 475 225 564 q 292 213 225 311 q 503 114 358 114 q 638 178 582 114 q 736 506 736 293 z "},"œ":{"ha":1143,"x_min":28,"x_max":1085,"o":"m 28 322 q 28 403 28 322 q 124 601 28 483 q 377 719 219 719 q 608 622 535 719 q 844 719 706 719 q 1019 670 953 719 q 1085 517 1085 621 q 991 362 1085 414 q 763 310 897 310 q 665 315 715 310 q 811 93 665 93 q 922 144 879 93 q 964 267 964 194 q 1046 243 1011 267 q 1081 178 1081 219 q 988 33 1081 92 q 796 -25 896 -25 q 560 72 633 -25 q 316 -25 460 -25 q 100 68 172 -25 q 28 322 28 161 m 225 567 q 200 406 200 486 q 206 279 200 325 q 226 189 211 233 q 352 93 258 93 q 476 147 446 93 q 506 306 506 200 q 365 601 506 601 q 225 567 285 601 m 667 425 q 754 417 708 417 q 922 454 853 417 q 931 507 931 488 q 896 581 931 556 q 801 606 861 606 q 692 567 740 606 q 667 425 667 494 z "},"Ŕ":{"ha":886,"x_min":85,"x_max":872,"o":"m 524 472 q 682 242 586 340 q 872 114 778 143 q 842 24 872 56 q 754 -8 811 -8 q 586 87 681 -8 q 422 312 492 182 q 339 540 351 442 q 503 594 439 540 q 568 746 568 647 q 413 871 568 871 q 290 854 363 871 q 281 551 281 667 q 310 17 281 182 q 215 0 265 0 q 128 32 165 0 q 92 117 92 64 q 106 301 92 169 q 119 511 119 432 q 85 943 119 754 q 442 994 272 994 q 751 774 751 994 q 685 591 751 676 q 524 472 619 506 m 336 1131 q 529 1325 461 1200 q 623 1305 585 1325 q 661 1246 661 1285 q 558 1134 661 1190 q 393 1078 454 1078 q 336 1131 347 1078 z "},"Ŗ":{"ha":886,"x_min":85,"x_max":872,"o":"m 524 472 q 682 242 586 340 q 872 114 778 143 q 842 24 872 56 q 754 -8 811 -8 q 586 87 681 -8 q 422 312 492 182 q 339 540 351 442 q 503 594 439 540 q 568 746 568 647 q 413 871 568 871 q 290 854 363 871 q 281 551 281 667 q 310 17 281 182 q 215 0 265 0 q 128 32 165 0 q 92 117 92 64 q 106 301 92 169 q 119 511 119 432 q 85 943 119 754 q 442 994 272 994 q 751 774 751 994 q 685 591 751 676 q 524 472 619 506 m 329 -322 q 381 -213 381 -278 q 350 -106 381 -149 q 456 -68 403 -68 q 533 -96 508 -68 q 557 -162 557 -124 q 503 -285 557 -224 q 389 -347 449 -347 q 329 -322 356 -347 z "},"ŗ":{"ha":635,"x_min":64,"x_max":633,"o":"m 276 17 q 185 0 233 0 q 106 23 136 0 q 76 87 76 46 q 89 236 76 128 q 101 447 101 344 q 69 686 101 549 q 157 703 114 703 q 231 674 200 703 q 263 596 263 644 q 254 522 263 571 q 244 447 246 472 q 373 641 299 571 q 521 711 447 711 q 603 675 572 711 q 633 584 633 639 q 606 495 633 529 q 537 461 578 461 q 471 469 496 461 q 475 500 475 486 q 435 557 475 557 q 320 434 374 557 q 249 204 267 311 q 276 17 256 100 m 64 -322 q 115 -213 115 -278 q 85 -106 115 -149 q 190 -68 138 -68 q 267 -96 243 -68 q 292 -162 292 -124 q 238 -285 292 -224 q 124 -347 183 -347 q 64 -322 92 -347 z "},"Ř":{"ha":886,"x_min":85,"x_max":872,"o":"m 183 1314 q 234 1353 201 1353 q 331 1318 267 1353 q 447 1242 394 1283 q 615 1353 574 1353 q 674 1314 656 1353 q 588 1237 614 1268 q 533 1169 561 1206 q 504 1131 506 1132 q 406 1078 463 1078 q 183 1314 321 1226 m 524 472 q 682 242 586 340 q 872 114 778 143 q 842 24 872 56 q 754 -8 811 -8 q 586 87 681 -8 q 422 312 492 182 q 339 540 351 442 q 503 594 439 540 q 568 746 568 647 q 413 871 568 871 q 290 854 363 871 q 281 551 281 667 q 310 17 281 182 q 215 0 265 0 q 128 32 165 0 q 92 117 92 64 q 106 301 92 169 q 119 511 119 432 q 85 943 119 754 q 442 994 272 994 q 751 774 751 994 q 685 591 751 676 q 524 472 619 506 z "},"ř":{"ha":642,"x_min":76,"x_max":640,"o":"m 117 1031 q 167 1069 135 1069 q 264 1035 200 1069 q 381 958 328 1000 q 548 1069 507 1069 q 607 1031 589 1069 q 521 953 547 985 q 467 885 494 922 q 438 847 439 849 q 339 794 396 794 q 117 1031 254 943 m 283 17 q 191 0 239 0 q 113 23 143 0 q 83 87 83 46 q 96 236 83 128 q 108 447 108 344 q 76 686 108 549 q 164 703 121 703 q 238 674 207 703 q 269 596 269 644 q 261 522 269 571 q 251 447 253 472 q 380 641 306 571 q 528 711 454 711 q 610 675 579 711 q 640 584 640 639 q 613 495 640 529 q 544 461 585 461 q 478 469 503 461 q 482 500 482 486 q 442 557 482 557 q 327 434 381 557 q 256 204 274 311 q 283 17 263 100 z "},"Ÿ":{"ha":807,"x_min":7,"x_max":799,"o":"m 7 914 q 129 986 40 986 q 442 511 294 986 q 590 774 528 640 q 651 994 651 908 q 799 917 799 994 q 732 756 799 863 q 588 535 665 649 q 497 369 511 422 q 493 236 493 315 q 513 17 493 157 q 418 0 468 0 q 331 32 368 0 q 294 113 294 64 q 311 365 294 163 q 7 914 204 782 m 217 1286 q 299 1303 251 1303 q 368 1231 368 1303 q 342 1166 368 1192 q 280 1140 315 1140 q 225 1160 244 1140 q 206 1216 206 1179 q 217 1286 206 1253 m 528 1286 q 610 1303 563 1303 q 679 1231 679 1303 q 653 1166 679 1192 q 591 1140 626 1140 q 536 1160 556 1140 q 517 1216 517 1179 q 528 1286 517 1253 z "},"ˆ":{"ha":629,"x_min":69,"x_max":560,"o":"m 560 833 q 509 794 542 794 q 413 829 476 794 q 296 906 349 864 q 128 794 169 794 q 69 833 88 794 q 156 910 129 879 q 210 978 182 942 q 239 1017 238 1015 q 338 1069 281 1069 q 443 928 378 999 q 560 833 508 858 z "},"˙":{"ha":357,"x_min":69,"x_max":288,"o":"m 94 1004 q 185 1028 139 1028 q 288 932 288 1028 q 253 845 288 881 q 169 810 218 810 q 95 838 121 810 q 69 913 69 865 q 94 1004 69 961 z "},"˚":{"ha":353,"x_min":54,"x_max":297,"o":"m 297 921 q 297 895 297 921 q 257 832 297 869 q 166 794 217 794 q 85 824 115 794 q 54 906 54 854 q 93 997 54 958 q 185 1036 132 1036 q 267 1004 238 1036 q 297 921 297 972 m 129 922 q 129 911 129 922 q 144 884 129 900 q 180 868 160 868 q 212 879 200 868 q 224 910 224 890 q 208 947 224 931 q 171 964 192 964 q 136 956 150 964 q 129 922 129 943 z "},"˜":{"ha":701,"x_min":97,"x_max":603,"o":"m 589 974 q 603 910 603 947 q 568 841 603 874 q 488 808 533 808 q 351 835 443 808 q 205 863 258 863 q 111 821 151 863 q 97 881 97 847 q 135 944 97 915 q 226 972 172 972 q 362 952 281 972 q 496 932 443 932 q 589 974 549 932 z "},"̀":{"ha":464,"x_min":69,"x_max":394,"o":"m 394 847 q 338 794 383 794 q 173 851 276 794 q 69 963 69 907 q 108 1022 69 1001 q 201 1042 146 1042 q 394 847 269 917 z "},"́":{"ha":464,"x_min":69,"x_max":394,"o":"m 69 847 q 263 1042 194 917 q 356 1022 318 1042 q 394 963 394 1001 q 291 851 394 907 q 126 794 188 794 q 69 847 81 794 z "},"–":{"ha":799,"x_min":76,"x_max":722,"o":"m 706 422 q 722 356 722 394 q 692 292 722 317 q 621 268 661 268 q 490 278 581 268 q 290 289 399 289 q 93 268 181 289 q 76 335 76 296 q 107 398 76 374 q 178 422 138 422 q 309 412 218 422 q 510 401 400 401 q 706 422 619 401 z "},"—":{"ha":1215,"x_min":76,"x_max":1139,"o":"m 1122 422 q 1139 356 1139 394 q 1109 292 1139 317 q 1027 268 1079 268 q 815 278 975 268 q 453 289 654 289 q 93 268 251 289 q 76 335 76 296 q 107 398 76 374 q 188 422 138 422 q 400 412 239 422 q 763 401 561 401 q 1122 422 964 401 z "},"‘":{"ha":422,"x_min":69,"x_max":353,"o":"m 353 963 q 270 904 299 936 q 226 821 242 872 q 288 739 288 803 q 263 635 288 700 q 171 613 218 613 q 97 640 124 613 q 69 714 69 667 q 138 897 69 808 q 292 985 206 985 q 353 963 326 985 z "},"’":{"ha":422,"x_min":69,"x_max":353,"o":"m 69 636 q 152 694 124 663 q 196 778 181 726 q 135 860 135 796 q 160 964 135 899 q 251 986 204 986 q 326 959 299 986 q 353 885 353 932 q 285 702 353 790 q 131 614 217 614 q 69 636 96 614 z "},"‚":{"ha":349,"x_min":69,"x_max":279,"o":"m 69 -37 q 121 144 121 54 q 115 204 121 176 q 189 214 160 214 q 279 136 279 214 q 224 8 279 78 q 115 -62 169 -62 q 69 -37 86 -62 z "},"“":{"ha":700,"x_min":69,"x_max":631,"o":"m 353 963 q 270 904 299 936 q 226 821 242 872 q 288 739 288 803 q 263 635 288 700 q 171 613 218 613 q 97 640 124 613 q 69 714 69 667 q 138 897 69 808 q 292 985 206 985 q 353 963 326 985 m 631 963 q 548 904 576 936 q 504 821 519 872 q 565 739 565 803 q 540 635 565 700 q 449 613 496 613 q 374 640 401 613 q 347 714 347 667 q 415 897 347 808 q 569 985 483 985 q 631 963 604 985 z "},"”":{"ha":700,"x_min":69,"x_max":631,"o":"m 69 636 q 152 694 124 663 q 196 778 181 726 q 135 860 135 796 q 160 964 135 899 q 251 986 204 986 q 326 959 299 986 q 353 885 353 932 q 285 702 353 790 q 131 614 217 614 q 69 636 96 614 m 347 636 q 430 694 401 663 q 474 778 458 726 q 413 860 413 796 q 438 964 413 899 q 529 986 482 986 q 603 959 576 986 q 631 885 631 932 q 563 702 631 790 q 408 614 494 614 q 347 636 374 614 z "},"„":{"ha":631,"x_min":69,"x_max":561,"o":"m 69 -37 q 121 144 121 54 q 115 204 121 176 q 189 214 160 214 q 279 136 279 214 q 224 8 279 78 q 115 -62 169 -62 q 69 -37 86 -62 m 351 -37 q 403 144 403 54 q 397 204 403 176 q 471 214 440 214 q 561 136 561 214 q 506 8 561 78 q 397 -62 451 -62 q 351 -37 368 -62 z "},"•":{"ha":465,"x_min":69,"x_max":396,"o":"m 107 479 q 252 514 181 514 q 360 476 324 514 q 396 365 396 438 q 344 240 396 293 q 223 188 292 188 q 112 223 154 188 q 69 322 69 258 q 107 479 69 385 z "},"‹":{"ha":649,"x_min":69,"x_max":579,"o":"m 574 161 q 495 106 561 106 q 304 201 429 106 q 69 413 179 296 q 525 739 415 631 q 579 676 579 724 q 510 561 579 629 q 318 399 442 493 q 574 161 440 242 z "},"›":{"ha":649,"x_min":69,"x_max":579,"o":"m 75 683 q 153 739 88 739 q 344 644 219 739 q 579 432 469 549 q 124 106 233 214 q 69 168 69 121 q 138 283 69 215 q 331 446 207 351 q 75 683 208 603 z "},"⁄":{"ha":815,"x_min":49,"x_max":767,"o":"m 49 8 q 315 401 154 101 q 568 840 511 760 q 681 919 625 919 q 767 888 738 919 q 514 515 665 796 q 253 57 311 138 q 138 -24 194 -24 q 49 8 81 -24 z "},"⁰":{"ha":518,"x_min":49,"x_max":469,"o":"m 265 522 q 320 572 303 522 q 338 679 338 621 q 320 772 338 738 q 263 806 303 806 q 200 786 224 806 q 181 653 181 728 q 265 522 181 522 m 469 683 q 406 492 469 568 q 232 417 342 417 q 49 644 49 417 q 114 835 49 760 q 288 911 179 911 q 469 683 469 911 z "},"⁴":{"ha":501,"x_min":49,"x_max":453,"o":"m 256 474 q 260 546 256 475 q 104 551 117 550 q 49 619 49 558 q 225 867 144 779 q 325 907 263 907 q 403 896 363 907 q 385 650 385 811 q 444 668 408 654 q 453 614 453 643 q 396 544 453 544 l 386 544 q 400 425 389 476 q 328 417 369 417 q 256 474 256 417 m 158 644 q 222 639 190 639 q 265 640 254 639 q 271 733 271 682 q 268 796 271 785 q 158 644 226 747 z "},"₀":{"ha":518,"x_min":49,"x_max":469,"o":"m 265 97 q 320 147 303 97 q 338 254 338 196 q 320 347 338 313 q 263 381 303 381 q 200 361 224 381 q 181 228 181 303 q 265 97 181 97 m 469 258 q 406 67 469 143 q 232 -8 342 -8 q 49 219 49 -8 q 114 410 49 335 q 288 486 179 486 q 469 258 469 486 z "},"₂":{"ha":454,"x_min":49,"x_max":406,"o":"m 344 -4 l 64 4 q 49 65 49 31 q 85 142 49 100 q 165 214 122 183 q 245 281 208 244 q 282 346 282 318 q 231 389 282 389 q 183 375 206 389 q 172 327 172 350 q 176 289 172 304 q 134 283 161 283 q 82 304 107 283 q 57 358 57 325 q 117 451 57 415 q 247 486 178 486 q 360 456 315 486 q 406 374 406 425 q 374 279 406 322 q 303 206 342 236 q 201 89 201 126 q 396 133 332 94 q 406 72 406 104 q 390 18 406 40 q 344 -4 374 -4 z "},"₄":{"ha":501,"x_min":49,"x_max":453,"o":"m 256 49 q 260 121 256 50 q 104 126 117 125 q 49 194 49 133 q 225 442 144 354 q 325 482 263 482 q 403 471 363 482 q 385 225 385 386 q 444 243 408 229 q 453 189 453 218 q 396 119 453 119 l 386 119 q 400 0 389 51 q 328 -8 369 -8 q 256 49 256 -8 m 158 219 q 222 214 190 214 q 265 215 254 214 q 271 308 271 257 q 268 371 271 360 q 158 219 226 322 z "},"−":{"ha":729,"x_min":76,"x_max":653,"o":"m 636 422 q 653 356 653 394 q 622 292 653 317 q 553 268 592 268 q 438 278 515 268 q 265 289 361 289 q 93 268 169 289 q 76 335 76 296 q 107 398 76 374 q 176 422 138 422 q 296 412 214 422 q 472 401 378 401 q 636 422 565 401 z "},"ﬀ":{"ha":953,"x_min":7,"x_max":1106,"o":"m 144 226 q 132 551 144 251 q 24 528 64 547 q 7 592 7 558 q 31 647 7 625 q 86 668 54 668 q 132 667 118 668 q 239 924 139 819 q 490 1028 339 1028 q 664 942 603 1028 q 904 1042 764 1042 q 1047 1006 989 1042 q 1106 899 1106 969 q 1068 814 1106 849 q 979 779 1031 779 q 951 782 968 779 q 956 814 956 800 q 935 892 956 863 q 861 922 914 922 q 764 892 808 922 q 719 788 736 854 q 703 657 703 721 q 953 686 826 657 q 969 620 969 658 q 938 557 969 582 q 857 532 906 532 q 700 551 856 532 l 714 -171 q 607 -261 714 -261 q 513 -244 571 -261 q 558 226 558 -62 q 546 556 558 256 q 286 553 374 556 l 300 -171 q 193 -261 300 -261 q 99 -244 157 -261 q 144 226 144 -62 m 546 660 q 574 797 547 731 q 540 877 571 846 q 452 908 510 908 q 350 878 394 908 q 289 663 289 801 q 546 660 371 660 z "},"ﬁ":{"ha":821,"x_min":7,"x_max":751,"o":"m 144 226 q 132 551 144 251 q 24 528 64 547 q 7 592 7 558 q 31 647 7 625 q 86 668 54 668 q 132 667 118 668 q 247 933 139 824 q 518 1042 354 1042 q 738 989 647 1042 q 751 921 751 965 q 718 844 751 876 q 637 811 685 811 q 563 838 589 811 q 536 913 536 865 q 485 922 517 922 q 364 892 415 922 q 309 788 329 854 q 289 657 289 721 l 363 657 q 507 672 419 657 q 637 686 594 686 q 711 660 679 686 q 743 591 743 633 q 728 445 743 549 q 714 285 714 342 q 743 8 714 129 q 650 -8 700 -8 q 571 15 600 -8 q 542 81 542 38 q 558 229 542 125 q 575 408 575 333 q 568 544 575 483 q 488 558 547 558 q 286 554 428 558 l 300 -171 q 193 -261 300 -261 q 99 -244 157 -261 q 144 226 144 -62 z "},"ﬂ":{"ha":871,"x_min":7,"x_max":789,"o":"m 144 226 q 132 551 144 251 q 24 528 64 547 q 7 592 7 558 q 31 647 7 625 q 86 668 54 668 q 132 667 118 668 q 247 933 139 824 q 508 1042 354 1042 q 786 969 663 1042 q 757 464 757 703 q 789 8 757 225 q 694 -8 744 -8 q 588 96 588 -8 q 603 297 588 146 q 618 594 618 447 q 600 869 618 742 q 488 922 560 922 q 364 892 415 922 q 309 788 329 854 q 289 657 289 721 l 321 657 q 511 686 404 657 q 528 620 528 658 q 496 557 528 582 q 415 532 464 532 q 286 551 414 532 l 300 -171 q 193 -261 300 -261 q 99 -244 157 -261 q 144 226 144 -62 z "},"ﬃ":{"ha":1235,"x_min":7,"x_max":1165,"o":"m 546 660 q 574 797 547 731 q 540 877 571 846 q 452 908 510 908 q 350 878 394 908 q 289 663 289 801 q 546 660 371 660 m 558 226 q 546 556 558 256 q 286 553 374 556 l 300 -171 q 193 -261 300 -261 q 99 -244 157 -261 q 144 226 144 -62 q 132 551 144 251 q 24 528 64 547 q 7 592 7 558 q 31 647 7 625 q 86 668 54 668 q 132 667 118 668 q 239 924 139 819 q 490 1028 339 1028 q 664 942 603 1028 q 932 1042 774 1042 q 1151 989 1061 1042 q 1165 921 1165 965 q 1132 844 1165 876 q 1051 811 1099 811 q 976 838 1003 811 q 950 913 950 865 q 899 922 931 922 q 778 892 829 922 q 723 788 743 854 q 703 657 703 721 l 776 657 q 921 672 833 657 q 1051 686 1008 686 q 1125 660 1093 686 q 1157 591 1157 633 q 1142 445 1157 549 q 1128 285 1128 342 q 1157 8 1128 129 q 1064 -8 1114 -8 q 985 15 1014 -8 q 956 81 956 38 q 972 229 956 125 q 989 408 989 333 q 982 544 989 483 q 901 558 961 558 q 700 554 842 558 l 714 -171 q 607 -261 714 -261 q 513 -244 571 -261 q 558 226 558 -62 z "},"ﬄ":{"ha":1285,"x_min":7,"x_max":1203,"o":"m 144 226 q 132 551 144 251 q 24 528 64 547 q 7 592 7 558 q 31 647 7 625 q 86 668 54 668 q 132 667 118 668 q 239 924 139 819 q 490 1028 339 1028 q 593 1003 546 1028 q 668 940 640 979 q 926 1042 776 1042 q 1200 969 1076 1042 q 1171 464 1171 703 q 1203 8 1171 225 q 1108 -8 1158 -8 q 1001 96 1001 -8 q 1017 297 1001 146 q 1032 594 1032 447 q 1014 869 1032 742 q 901 922 974 922 q 778 892 829 922 q 723 788 743 854 q 703 657 703 721 q 925 686 818 657 q 942 620 942 658 q 910 557 942 582 q 829 532 878 532 q 700 551 828 532 l 714 -171 q 607 -261 714 -261 q 513 -244 571 -261 q 558 226 558 -62 q 546 556 558 256 q 286 553 374 556 l 300 -171 q 193 -261 300 -261 q 99 -244 157 -261 q 144 226 144 -62 m 546 660 q 574 797 547 731 q 540 877 571 846 q 452 908 510 908 q 350 878 394 908 q 289 663 289 801 q 546 660 371 660 z "}}}
